<svg xmlns="http://www.w3.org/2000/svg" width="791.8" height="695.689" viewBox="0 0 791.8 695.689">
  <polyline points="308.4,281.178 308.4,276.178 358.4,276.178" fill="none" stroke="blue" stroke-width="1" />
  <polyline points="308.4,301.178 308.4,306.178 358.4,306.178" fill="none" stroke="blue" stroke-width="1" />
  <polyline points="318.4,399.511 358.4,399.511" fill="none" stroke="blue" stroke-width="1" />
  <polyline points="478.4,392.289 438.4,392.289" fill="none" stroke="blue" stroke-width="1" />
  <polyline points="28.4,56.4 28.4,50.4 78.4,50.4" fill="none" stroke="blue" stroke-width="1" />
  <polyline points="28.4,76.4 28.4,82.4 78.4,82.4" fill="none" stroke="blue" stroke-width="1" />
  <polyline points="38.4,146.4 78.4,146.4" fill="none" stroke="blue" stroke-width="1" />
  <polyline points="198.4,146.4 158.4,146.4" fill="none" stroke="blue" stroke-width="1" />
  <polyline points="368.4,56.4 368.4,50.4 418.4,50.4" fill="none" stroke="blue" stroke-width="1" />
  <polyline points="368.4,76.4 368.4,82.4 418.4,82.4" fill="none" stroke="blue" stroke-width="1" />
  <polyline points="378.4,146.4 418.4,146.4" fill="none" stroke="blue" stroke-width="1" />
  <polyline points="318.4,146.4 358.4,146.4" fill="none" stroke="blue" stroke-width="1" />
  <polyline points="613.4,56.4 613.4,50.4 663.4,50.4" fill="none" stroke="blue" stroke-width="1" />
  <polyline points="613.4,76.4 613.4,82.4 663.4,82.4" fill="none" stroke="blue" stroke-width="1" />
  <polyline points="55.9,305.844 55.9,299.844 105.9,299.844" fill="none" stroke="blue" stroke-width="1" />
  <polyline points="55.9,325.844 55.9,331.844 105.9,331.844" fill="none" stroke="blue" stroke-width="1" />
  <polyline points="615.9,305.844 615.9,299.844 665.9,299.844" fill="none" stroke="blue" stroke-width="1" />
  <polyline points="615.9,325.844 615.9,331.844 665.9,331.844" fill="none" stroke="blue" stroke-width="1" />
  <polyline points="625.9,395.844 665.9,395.844" fill="none" stroke="blue" stroke-width="1" />
  <polyline points="55.9,555.289 55.9,549.289 105.9,549.289" fill="none" stroke="blue" stroke-width="1" />
  <polyline points="55.9,575.289 55.9,581.289 105.9,581.289" fill="none" stroke="blue" stroke-width="1" />
  <polyline points="305.9,555.289 305.9,549.289 355.9,549.289" fill="none" stroke="blue" stroke-width="1" />
  <polyline points="305.9,575.289 305.9,581.289 355.9,581.289" fill="none" stroke="blue" stroke-width="1" />
  <polyline points="475.9,613.289 435.9,613.289" fill="none" stroke="blue" stroke-width="1" />
  <polyline points="583.4,555.289 583.4,549.289 633.4,549.289" fill="none" stroke="blue" stroke-width="1" />
  <polyline points="583.4,575.289 583.4,581.289 633.4,581.289" fill="none" stroke="blue" stroke-width="1" />
  <polyline points="753.4,613.289 713.4,613.289" fill="none" stroke="blue" stroke-width="1" />
  <polyline points="438.4,336.733 524.8,336.733 524.8,447.289 95.9,447.289 95.9,363.844 105.9,363.844" fill="none" stroke="blue" stroke-width="1" />
  <polyline points="358.4,361.733 293.4,361.733 293.4,248.4 600.9,248.4 600.9,363.844 665.9,363.844" fill="none" stroke="blue" stroke-width="1" />
  <polyline points="158.4,114.4 288.4,114.4 288.4,188.4 508.4,188.4 508.4,114.4 498.4,114.4" fill="none" stroke="blue" stroke-width="1" />
  <polyline points="743.4,114.4 772.3,114.4 772.3,363.844 745.9,363.844" fill="none" stroke="blue" stroke-width="1" />
  <rect x="358.4" y="258.4" width="80" height="178.889" fill="#f5e6a8" stroke="black" stroke-width="1" />
  <circle cx="358.4" cy="276.178" r="1.5" fill="black" />
  <text x="361.4" y="276.178" font-family="sans-serif" font-size="2.5" text-anchor="middle" dominant-baseline="middle">1</text>
  <circle cx="358.4" cy="306.178" r="1.5" fill="black" />
  <text x="361.4" y="306.178" font-family="sans-serif" font-size="2.5" text-anchor="middle" dominant-baseline="middle">2</text>
  <circle cx="358.4" cy="326.178" r="1.5" fill="black" />
  <text x="361.4" y="326.178" font-family="sans-serif" font-size="2.5" text-anchor="middle" dominant-baseline="middle">3</text>
  <circle cx="358.4" cy="343.956" r="1.5" fill="black" />
  <text x="361.4" y="343.956" font-family="sans-serif" font-size="2.5" text-anchor="middle" dominant-baseline="middle">4</text>
  <circle cx="358.4" cy="361.733" r="1.5" fill="black" />
  <text x="361.4" y="361.733" font-family="sans-serif" font-size="2.5" text-anchor="middle" dominant-baseline="middle">5</text>
  <circle cx="358.4" cy="379.511" r="1.5" fill="black" />
  <text x="361.4" y="379.511" font-family="sans-serif" font-size="2.5" text-anchor="middle" dominant-baseline="middle">6</text>
  <circle cx="358.4" cy="399.511" r="1.5" fill="black" />
  <text x="361.4" y="399.511" font-family="sans-serif" font-size="2.5" text-anchor="middle" dominant-baseline="middle">7</text>
  <circle cx="358.4" cy="419.511" r="1.5" fill="black" />
  <text x="361.4" y="419.511" font-family="sans-serif" font-size="2.5" text-anchor="middle" dominant-baseline="middle">8</text>
  <circle cx="438.4" cy="283.4" r="1.5" fill="black" />
  <text x="435.4" y="283.4" font-family="sans-serif" font-size="2.5" text-anchor="middle" dominant-baseline="middle">9</text>
  <circle cx="438.4" cy="301.178" r="1.5" fill="black" />
  <text x="435.4" y="301.178" font-family="sans-serif" font-size="2.5" text-anchor="middle" dominant-baseline="middle">10</text>
  <circle cx="438.4" cy="318.956" r="1.5" fill="black" />
  <text x="435.4" y="318.956" font-family="sans-serif" font-size="2.5" text-anchor="middle" dominant-baseline="middle">11</text>
  <circle cx="438.4" cy="336.733" r="1.5" fill="black" />
  <text x="435.4" y="336.733" font-family="sans-serif" font-size="2.5" text-anchor="middle" dominant-baseline="middle">12</text>
  <circle cx="438.4" cy="354.511" r="1.5" fill="black" />
  <text x="435.4" y="354.511" font-family="sans-serif" font-size="2.5" text-anchor="middle" dominant-baseline="middle">13</text>
  <circle cx="438.4" cy="372.289" r="1.5" fill="black" />
  <text x="435.4" y="372.289" font-family="sans-serif" font-size="2.5" text-anchor="middle" dominant-baseline="middle">14</text>
  <circle cx="438.4" cy="392.289" r="1.5" fill="black" />
  <text x="435.4" y="392.289" font-family="sans-serif" font-size="2.5" text-anchor="middle" dominant-baseline="middle">15</text>
  <circle cx="438.4" cy="412.289" r="1.5" fill="black" />
  <text x="435.4" y="412.289" font-family="sans-serif" font-size="2.5" text-anchor="middle" dominant-baseline="middle">16</text>
  <text x="398.4" y="347.844" font-family="sans-serif" font-size="3" text-anchor="middle" dominant-baseline="middle">U1</text>
  <rect x="303.4" y="281.178" width="10" height="20" fill="#b4c8f0" stroke="black" stroke-width="1" />
  <circle cx="308.4" cy="281.178" r="1.5" fill="black" />
  <text x="308.4" y="284.178" font-family="sans-serif" font-size="2.5" text-anchor="middle" dominant-baseline="middle">1</text>
  <circle cx="308.4" cy="301.178" r="1.5" fill="black" />
  <text x="308.4" y="298.178" font-family="sans-serif" font-size="2.5" text-anchor="middle" dominant-baseline="middle">2</text>
  <text x="308.4" y="291.178" font-family="sans-serif" font-size="3" text-anchor="middle" dominant-baseline="middle">CD1</text>
  <rect x="298.4" y="394.511" width="20" height="10" fill="#f0b4b4" stroke="black" stroke-width="1" />
  <circle cx="318.4" cy="399.511" r="1.5" fill="black" />
  <text x="315.4" y="399.511" font-family="sans-serif" font-size="2.5" text-anchor="middle" dominant-baseline="middle">2</text>
  <circle cx="298.4" cy="399.511" r="1.5" fill="black" />
  <text x="301.4" y="399.511" font-family="sans-serif" font-size="2.5" text-anchor="middle" dominant-baseline="middle">1</text>
  <text x="308.4" y="399.511" font-family="sans-serif" font-size="3" text-anchor="middle" dominant-baseline="middle">R1</text>
  <rect x="478.4" y="387.289" width="20" height="10" fill="#f0b4b4" stroke="black" stroke-width="1" />
  <circle cx="478.4" cy="392.289" r="1.5" fill="black" />
  <text x="481.4" y="392.289" font-family="sans-serif" font-size="2.5" text-anchor="middle" dominant-baseline="middle">2</text>
  <circle cx="498.4" cy="392.289" r="1.5" fill="black" />
  <text x="495.4" y="392.289" font-family="sans-serif" font-size="2.5" text-anchor="middle" dominant-baseline="middle">1</text>
  <text x="488.4" y="392.289" font-family="sans-serif" font-size="3" text-anchor="middle" dominant-baseline="middle">R2</text>
  <rect x="78.4" y="18.4" width="80" height="160" fill="#f5e6a8" stroke="black" stroke-width="1" />
  <circle cx="78.4" cy="50.4" r="1.5" fill="black" />
  <text x="81.4" y="50.4" font-family="sans-serif" font-size="2.5" text-anchor="middle" dominant-baseline="middle">1</text>
  <circle cx="78.4" cy="82.4" r="1.5" fill="black" />
  <text x="81.4" y="82.4" font-family="sans-serif" font-size="2.5" text-anchor="middle" dominant-baseline="middle">2</text>
  <circle cx="78.4" cy="114.4" r="1.5" fill="black" />
  <text x="81.4" y="114.4" font-family="sans-serif" font-size="2.5" text-anchor="middle" dominant-baseline="middle">3</text>
  <circle cx="78.4" cy="146.4" r="1.5" fill="black" />
  <text x="81.4" y="146.4" font-family="sans-serif" font-size="2.5" text-anchor="middle" dominant-baseline="middle">4</text>
  <circle cx="158.4" cy="50.4" r="1.5" fill="black" />
  <text x="155.4" y="50.4" font-family="sans-serif" font-size="2.5" text-anchor="middle" dominant-baseline="middle">5</text>
  <circle cx="158.4" cy="82.4" r="1.5" fill="black" />
  <text x="155.4" y="82.4" font-family="sans-serif" font-size="2.5" text-anchor="middle" dominant-baseline="middle">6</text>
  <circle cx="158.4" cy="114.4" r="1.5" fill="black" />
  <text x="155.4" y="114.4" font-family="sans-serif" font-size="2.5" text-anchor="middle" dominant-baseline="middle">7</text>
  <circle cx="158.4" cy="146.4" r="1.5" fill="black" />
  <text x="155.4" y="146.4" font-family="sans-serif" font-size="2.5" text-anchor="middle" dominant-baseline="middle">8</text>
  <text x="118.4" y="98.4" font-family="sans-serif" font-size="3" text-anchor="middle" dominant-baseline="middle">U2</text>
  <rect x="23.4" y="56.4" width="10" height="20" fill="#b4c8f0" stroke="black" stroke-width="1" />
  <circle cx="28.4" cy="56.4" r="1.5" fill="black" />
  <text x="28.4" y="59.4" font-family="sans-serif" font-size="2.5" text-anchor="middle" dominant-baseline="middle">1</text>
  <circle cx="28.4" cy="76.4" r="1.5" fill="black" />
  <text x="28.4" y="73.4" font-family="sans-serif" font-size="2.5" text-anchor="middle" dominant-baseline="middle">2</text>
  <text x="28.4" y="66.4" font-family="sans-serif" font-size="3" text-anchor="middle" dominant-baseline="middle">CD2</text>
  <rect x="18.4" y="141.4" width="20" height="10" fill="#f0b4b4" stroke="black" stroke-width="1" />
  <circle cx="38.4" cy="146.4" r="1.5" fill="black" />
  <text x="35.4" y="146.4" font-family="sans-serif" font-size="2.5" text-anchor="middle" dominant-baseline="middle">2</text>
  <circle cx="18.4" cy="146.4" r="1.5" fill="black" />
  <text x="21.4" y="146.4" font-family="sans-serif" font-size="2.5" text-anchor="middle" dominant-baseline="middle">1</text>
  <text x="28.4" y="146.4" font-family="sans-serif" font-size="3" text-anchor="middle" dominant-baseline="middle">R3</text>
  <rect x="198.4" y="141.4" width="20" height="10" fill="#b4c8f0" stroke="black" stroke-width="1" />
  <circle cx="198.4" cy="146.4" r="1.5" fill="black" />
  <text x="201.4" y="146.4" font-family="sans-serif" font-size="2.5" text-anchor="middle" dominant-baseline="middle">1</text>
  <circle cx="218.4" cy="146.4" r="1.5" fill="black" />
  <text x="215.4" y="146.4" font-family="sans-serif" font-size="2.5" text-anchor="middle" dominant-baseline="middle">2</text>
  <text x="208.4" y="146.4" font-family="sans-serif" font-size="3" text-anchor="middle" dominant-baseline="middle">CB1</text>
  <rect x="418.4" y="18.4" width="80" height="160" fill="#f5e6a8" stroke="black" stroke-width="1" />
  <circle cx="418.4" cy="50.4" r="1.5" fill="black" />
  <text x="421.4" y="50.4" font-family="sans-serif" font-size="2.5" text-anchor="middle" dominant-baseline="middle">1</text>
  <circle cx="418.4" cy="82.4" r="1.5" fill="black" />
  <text x="421.4" y="82.4" font-family="sans-serif" font-size="2.5" text-anchor="middle" dominant-baseline="middle">2</text>
  <circle cx="418.4" cy="114.4" r="1.5" fill="black" />
  <text x="421.4" y="114.4" font-family="sans-serif" font-size="2.5" text-anchor="middle" dominant-baseline="middle">3</text>
  <circle cx="418.4" cy="146.4" r="1.5" fill="black" />
  <text x="421.4" y="146.4" font-family="sans-serif" font-size="2.5" text-anchor="middle" dominant-baseline="middle">4</text>
  <circle cx="498.4" cy="50.4" r="1.5" fill="black" />
  <text x="495.4" y="50.4" font-family="sans-serif" font-size="2.5" text-anchor="middle" dominant-baseline="middle">5</text>
  <circle cx="498.4" cy="82.4" r="1.5" fill="black" />
  <text x="495.4" y="82.4" font-family="sans-serif" font-size="2.5" text-anchor="middle" dominant-baseline="middle">6</text>
  <circle cx="498.4" cy="114.4" r="1.5" fill="black" />
  <text x="495.4" y="114.4" font-family="sans-serif" font-size="2.5" text-anchor="middle" dominant-baseline="middle">7</text>
  <circle cx="498.4" cy="146.4" r="1.5" fill="black" />
  <text x="495.4" y="146.4" font-family="sans-serif" font-size="2.5" text-anchor="middle" dominant-baseline="middle">8</text>
  <text x="458.4" y="98.4" font-family="sans-serif" font-size="3" text-anchor="middle" dominant-baseline="middle">U3</text>
  <rect x="363.4" y="56.4" width="10" height="20" fill="#b4c8f0" stroke="black" stroke-width="1" />
  <circle cx="368.4" cy="56.4" r="1.5" fill="black" />
  <text x="368.4" y="59.4" font-family="sans-serif" font-size="2.5" text-anchor="middle" dominant-baseline="middle">1</text>
  <circle cx="368.4" cy="76.4" r="1.5" fill="black" />
  <text x="368.4" y="73.4" font-family="sans-serif" font-size="2.5" text-anchor="middle" dominant-baseline="middle">2</text>
  <text x="368.4" y="66.4" font-family="sans-serif" font-size="3" text-anchor="middle" dominant-baseline="middle">CD3</text>
  <rect x="358.4" y="141.4" width="20" height="10" fill="#f0b4b4" stroke="black" stroke-width="1" />
  <circle cx="378.4" cy="146.4" r="1.5" fill="black" />
  <text x="375.4" y="146.4" font-family="sans-serif" font-size="2.5" text-anchor="middle" dominant-baseline="middle">1</text>
  <circle cx="358.4" cy="146.4" r="1.5" fill="black" />
  <text x="361.4" y="146.4" font-family="sans-serif" font-size="2.5" text-anchor="middle" dominant-baseline="middle">2</text>
  <text x="368.4" y="146.4" font-family="sans-serif" font-size="3" text-anchor="middle" dominant-baseline="middle">R4</text>
  <rect x="298.4" y="141.4" width="20" height="10" fill="#f0b4b4" stroke="black" stroke-width="1" />
  <circle cx="318.4" cy="146.4" r="1.5" fill="black" />
  <text x="315.4" y="146.4" font-family="sans-serif" font-size="2.5" text-anchor="middle" dominant-baseline="middle">1</text>
  <circle cx="298.4" cy="146.4" r="1.5" fill="black" />
  <text x="301.4" y="146.4" font-family="sans-serif" font-size="2.5" text-anchor="middle" dominant-baseline="middle">2</text>
  <text x="308.4" y="146.4" font-family="sans-serif" font-size="3" text-anchor="middle" dominant-baseline="middle">R5</text>
  <rect x="663.4" y="18.4" width="80" height="160" fill="#f5e6a8" stroke="black" stroke-width="1" />
  <circle cx="663.4" cy="50.4" r="1.5" fill="black" />
  <text x="666.4" y="50.4" font-family="sans-serif" font-size="2.5" text-anchor="middle" dominant-baseline="middle">1</text>
  <circle cx="663.4" cy="82.4" r="1.5" fill="black" />
  <text x="666.4" y="82.4" font-family="sans-serif" font-size="2.5" text-anchor="middle" dominant-baseline="middle">2</text>
  <circle cx="663.4" cy="114.4" r="1.5" fill="black" />
  <text x="666.4" y="114.4" font-family="sans-serif" font-size="2.5" text-anchor="middle" dominant-baseline="middle">3</text>
  <circle cx="663.4" cy="146.4" r="1.5" fill="black" />
  <text x="666.4" y="146.4" font-family="sans-serif" font-size="2.5" text-anchor="middle" dominant-baseline="middle">4</text>
  <circle cx="743.4" cy="50.4" r="1.5" fill="black" />
  <text x="740.4" y="50.4" font-family="sans-serif" font-size="2.5" text-anchor="middle" dominant-baseline="middle">5</text>
  <circle cx="743.4" cy="82.4" r="1.5" fill="black" />
  <text x="740.4" y="82.4" font-family="sans-serif" font-size="2.5" text-anchor="middle" dominant-baseline="middle">6</text>
  <circle cx="743.4" cy="114.4" r="1.5" fill="black" />
  <text x="740.4" y="114.4" font-family="sans-serif" font-size="2.5" text-anchor="middle" dominant-baseline="middle">7</text>
  <circle cx="743.4" cy="146.4" r="1.5" fill="black" />
  <text x="740.4" y="146.4" font-family="sans-serif" font-size="2.5" text-anchor="middle" dominant-baseline="middle">8</text>
  <text x="703.4" y="98.4" font-family="sans-serif" font-size="3" text-anchor="middle" dominant-baseline="middle">U4</text>
  <rect x="608.4" y="56.4" width="10" height="20" fill="#b4c8f0" stroke="black" stroke-width="1" />
  <circle cx="613.4" cy="56.4" r="1.5" fill="black" />
  <text x="613.4" y="59.4" font-family="sans-serif" font-size="2.5" text-anchor="middle" dominant-baseline="middle">1</text>
  <circle cx="613.4" cy="76.4" r="1.5" fill="black" />
  <text x="613.4" y="73.4" font-family="sans-serif" font-size="2.5" text-anchor="middle" dominant-baseline="middle">2</text>
  <text x="613.4" y="66.4" font-family="sans-serif" font-size="3" text-anchor="middle" dominant-baseline="middle">CD4</text>
  <rect x="105.9" y="267.844" width="80" height="160" fill="#f5e6a8" stroke="black" stroke-width="1" />
  <circle cx="105.9" cy="299.844" r="1.5" fill="black" />
  <text x="108.9" y="299.844" font-family="sans-serif" font-size="2.5" text-anchor="middle" dominant-baseline="middle">1</text>
  <circle cx="105.9" cy="331.844" r="1.5" fill="black" />
  <text x="108.9" y="331.844" font-family="sans-serif" font-size="2.5" text-anchor="middle" dominant-baseline="middle">2</text>
  <circle cx="105.9" cy="363.844" r="1.5" fill="black" />
  <text x="108.9" y="363.844" font-family="sans-serif" font-size="2.5" text-anchor="middle" dominant-baseline="middle">3</text>
  <circle cx="105.9" cy="395.844" r="1.5" fill="black" />
  <text x="108.9" y="395.844" font-family="sans-serif" font-size="2.5" text-anchor="middle" dominant-baseline="middle">4</text>
  <circle cx="185.9" cy="299.844" r="1.5" fill="black" />
  <text x="182.9" y="299.844" font-family="sans-serif" font-size="2.5" text-anchor="middle" dominant-baseline="middle">5</text>
  <circle cx="185.9" cy="331.844" r="1.5" fill="black" />
  <text x="182.9" y="331.844" font-family="sans-serif" font-size="2.5" text-anchor="middle" dominant-baseline="middle">6</text>
  <circle cx="185.9" cy="363.844" r="1.5" fill="black" />
  <text x="182.9" y="363.844" font-family="sans-serif" font-size="2.5" text-anchor="middle" dominant-baseline="middle">7</text>
  <circle cx="185.9" cy="395.844" r="1.5" fill="black" />
  <text x="182.9" y="395.844" font-family="sans-serif" font-size="2.5" text-anchor="middle" dominant-baseline="middle">8</text>
  <text x="145.9" y="347.844" font-family="sans-serif" font-size="3" text-anchor="middle" dominant-baseline="middle">U5</text>
  <rect x="50.9" y="305.844" width="10" height="20" fill="#b4c8f0" stroke="black" stroke-width="1" />
  <circle cx="55.9" cy="305.844" r="1.5" fill="black" />
  <text x="55.9" y="308.844" font-family="sans-serif" font-size="2.5" text-anchor="middle" dominant-baseline="middle">1</text>
  <circle cx="55.9" cy="325.844" r="1.5" fill="black" />
  <text x="55.9" y="322.844" font-family="sans-serif" font-size="2.5" text-anchor="middle" dominant-baseline="middle">2</text>
  <text x="55.9" y="315.844" font-family="sans-serif" font-size="3" text-anchor="middle" dominant-baseline="middle">CD5</text>
  <rect x="665.9" y="267.844" width="80" height="160" fill="#f5e6a8" stroke="black" stroke-width="1" />
  <circle cx="665.9" cy="299.844" r="1.5" fill="black" />
  <text x="668.9" y="299.844" font-family="sans-serif" font-size="2.5" text-anchor="middle" dominant-baseline="middle">1</text>
  <circle cx="665.9" cy="331.844" r="1.5" fill="black" />
  <text x="668.9" y="331.844" font-family="sans-serif" font-size="2.5" text-anchor="middle" dominant-baseline="middle">2</text>
  <circle cx="665.9" cy="363.844" r="1.5" fill="black" />
  <text x="668.9" y="363.844" font-family="sans-serif" font-size="2.5" text-anchor="middle" dominant-baseline="middle">3</text>
  <circle cx="665.9" cy="395.844" r="1.5" fill="black" />
  <text x="668.9" y="395.844" font-family="sans-serif" font-size="2.5" text-anchor="middle" dominant-baseline="middle">4</text>
  <circle cx="745.9" cy="299.844" r="1.5" fill="black" />
  <text x="742.9" y="299.844" font-family="sans-serif" font-size="2.5" text-anchor="middle" dominant-baseline="middle">5</text>
  <circle cx="745.9" cy="331.844" r="1.5" fill="black" />
  <text x="742.9" y="331.844" font-family="sans-serif" font-size="2.5" text-anchor="middle" dominant-baseline="middle">6</text>
  <circle cx="745.9" cy="363.844" r="1.5" fill="black" />
  <text x="742.9" y="363.844" font-family="sans-serif" font-size="2.5" text-anchor="middle" dominant-baseline="middle">7</text>
  <circle cx="745.9" cy="395.844" r="1.5" fill="black" />
  <text x="742.9" y="395.844" font-family="sans-serif" font-size="2.5" text-anchor="middle" dominant-baseline="middle">8</text>
  <text x="705.9" y="347.844" font-family="sans-serif" font-size="3" text-anchor="middle" dominant-baseline="middle">U6</text>
  <rect x="610.9" y="305.844" width="10" height="20" fill="#b4c8f0" stroke="black" stroke-width="1" />
  <circle cx="615.9" cy="305.844" r="1.5" fill="black" />
  <text x="615.9" y="308.844" font-family="sans-serif" font-size="2.5" text-anchor="middle" dominant-baseline="middle">1</text>
  <circle cx="615.9" cy="325.844" r="1.5" fill="black" />
  <text x="615.9" y="322.844" font-family="sans-serif" font-size="2.5" text-anchor="middle" dominant-baseline="middle">2</text>
  <text x="615.9" y="315.844" font-family="sans-serif" font-size="3" text-anchor="middle" dominant-baseline="middle">CD6</text>
  <rect x="605.9" y="390.844" width="20" height="10" fill="#b4c8f0" stroke="black" stroke-width="1" />
  <circle cx="625.9" cy="395.844" r="1.5" fill="black" />
  <text x="622.9" y="395.844" font-family="sans-serif" font-size="2.5" text-anchor="middle" dominant-baseline="middle">1</text>
  <circle cx="605.9" cy="395.844" r="1.5" fill="black" />
  <text x="608.9" y="395.844" font-family="sans-serif" font-size="2.5" text-anchor="middle" dominant-baseline="middle">2</text>
  <text x="615.9" y="395.844" font-family="sans-serif" font-size="3" text-anchor="middle" dominant-baseline="middle">CB2</text>
  <rect x="105.9" y="517.289" width="80" height="160" fill="#f5e6a8" stroke="black" stroke-width="1" />
  <circle cx="105.9" cy="549.289" r="1.5" fill="black" />
  <text x="108.9" y="549.289" font-family="sans-serif" font-size="2.5" text-anchor="middle" dominant-baseline="middle">1</text>
  <circle cx="105.9" cy="581.289" r="1.5" fill="black" />
  <text x="108.9" y="581.289" font-family="sans-serif" font-size="2.5" text-anchor="middle" dominant-baseline="middle">2</text>
  <circle cx="105.9" cy="613.289" r="1.5" fill="black" />
  <text x="108.9" y="613.289" font-family="sans-serif" font-size="2.5" text-anchor="middle" dominant-baseline="middle">3</text>
  <circle cx="105.9" cy="645.289" r="1.5" fill="black" />
  <text x="108.9" y="645.289" font-family="sans-serif" font-size="2.5" text-anchor="middle" dominant-baseline="middle">4</text>
  <circle cx="185.9" cy="549.289" r="1.5" fill="black" />
  <text x="182.9" y="549.289" font-family="sans-serif" font-size="2.5" text-anchor="middle" dominant-baseline="middle">5</text>
  <circle cx="185.9" cy="581.289" r="1.5" fill="black" />
  <text x="182.9" y="581.289" font-family="sans-serif" font-size="2.5" text-anchor="middle" dominant-baseline="middle">6</text>
  <circle cx="185.9" cy="613.289" r="1.5" fill="black" />
  <text x="182.9" y="613.289" font-family="sans-serif" font-size="2.5" text-anchor="middle" dominant-baseline="middle">7</text>
  <circle cx="185.9" cy="645.289" r="1.5" fill="black" />
  <text x="182.9" y="645.289" font-family="sans-serif" font-size="2.5" text-anchor="middle" dominant-baseline="middle">8</text>
  <text x="145.9" y="597.289" font-family="sans-serif" font-size="3" text-anchor="middle" dominant-baseline="middle">U7</text>
  <rect x="50.9" y="555.289" width="10" height="20" fill="#b4c8f0" stroke="black" stroke-width="1" />
  <circle cx="55.9" cy="555.289" r="1.5" fill="black" />
  <text x="55.9" y="558.289" font-family="sans-serif" font-size="2.5" text-anchor="middle" dominant-baseline="middle">1</text>
  <circle cx="55.9" cy="575.289" r="1.5" fill="black" />
  <text x="55.9" y="572.289" font-family="sans-serif" font-size="2.5" text-anchor="middle" dominant-baseline="middle">2</text>
  <text x="55.9" y="565.289" font-family="sans-serif" font-size="3" text-anchor="middle" dominant-baseline="middle">CD7</text>
  <rect x="355.9" y="517.289" width="80" height="160" fill="#f5e6a8" stroke="black" stroke-width="1" />
  <circle cx="355.9" cy="549.289" r="1.5" fill="black" />
  <text x="358.9" y="549.289" font-family="sans-serif" font-size="2.5" text-anchor="middle" dominant-baseline="middle">1</text>
  <circle cx="355.9" cy="581.289" r="1.5" fill="black" />
  <text x="358.9" y="581.289" font-family="sans-serif" font-size="2.5" text-anchor="middle" dominant-baseline="middle">2</text>
  <circle cx="355.9" cy="613.289" r="1.5" fill="black" />
  <text x="358.9" y="613.289" font-family="sans-serif" font-size="2.5" text-anchor="middle" dominant-baseline="middle">3</text>
  <circle cx="355.9" cy="645.289" r="1.5" fill="black" />
  <text x="358.9" y="645.289" font-family="sans-serif" font-size="2.5" text-anchor="middle" dominant-baseline="middle">4</text>
  <circle cx="435.9" cy="549.289" r="1.5" fill="black" />
  <text x="432.9" y="549.289" font-family="sans-serif" font-size="2.5" text-anchor="middle" dominant-baseline="middle">5</text>
  <circle cx="435.9" cy="581.289" r="1.5" fill="black" />
  <text x="432.9" y="581.289" font-family="sans-serif" font-size="2.5" text-anchor="middle" dominant-baseline="middle">6</text>
  <circle cx="435.9" cy="613.289" r="1.5" fill="black" />
  <text x="432.9" y="613.289" font-family="sans-serif" font-size="2.5" text-anchor="middle" dominant-baseline="middle">7</text>
  <circle cx="435.9" cy="645.289" r="1.5" fill="black" />
  <text x="432.9" y="645.289" font-family="sans-serif" font-size="2.5" text-anchor="middle" dominant-baseline="middle">8</text>
  <text x="395.9" y="597.289" font-family="sans-serif" font-size="3" text-anchor="middle" dominant-baseline="middle">U8</text>
  <rect x="300.9" y="555.289" width="10" height="20" fill="#b4c8f0" stroke="black" stroke-width="1" />
  <circle cx="305.9" cy="555.289" r="1.5" fill="black" />
  <text x="305.9" y="558.289" font-family="sans-serif" font-size="2.5" text-anchor="middle" dominant-baseline="middle">1</text>
  <circle cx="305.9" cy="575.289" r="1.5" fill="black" />
  <text x="305.9" y="572.289" font-family="sans-serif" font-size="2.5" text-anchor="middle" dominant-baseline="middle">2</text>
  <text x="305.9" y="565.289" font-family="sans-serif" font-size="3" text-anchor="middle" dominant-baseline="middle">CD8</text>
  <rect x="475.9" y="608.289" width="20" height="10" fill="#f0b4b4" stroke="black" stroke-width="1" />
  <circle cx="475.9" cy="613.289" r="1.5" fill="black" />
  <text x="478.9" y="613.289" font-family="sans-serif" font-size="2.5" text-anchor="middle" dominant-baseline="middle">1</text>
  <circle cx="495.9" cy="613.289" r="1.5" fill="black" />
  <text x="492.9" y="613.289" font-family="sans-serif" font-size="2.5" text-anchor="middle" dominant-baseline="middle">2</text>
  <text x="485.9" y="613.289" font-family="sans-serif" font-size="3" text-anchor="middle" dominant-baseline="middle">R6</text>
  <rect x="633.4" y="517.289" width="80" height="160" fill="#f5e6a8" stroke="black" stroke-width="1" />
  <circle cx="633.4" cy="549.289" r="1.5" fill="black" />
  <text x="636.4" y="549.289" font-family="sans-serif" font-size="2.5" text-anchor="middle" dominant-baseline="middle">1</text>
  <circle cx="633.4" cy="581.289" r="1.5" fill="black" />
  <text x="636.4" y="581.289" font-family="sans-serif" font-size="2.5" text-anchor="middle" dominant-baseline="middle">2</text>
  <circle cx="633.4" cy="613.289" r="1.5" fill="black" />
  <text x="636.4" y="613.289" font-family="sans-serif" font-size="2.5" text-anchor="middle" dominant-baseline="middle">3</text>
  <circle cx="633.4" cy="645.289" r="1.5" fill="black" />
  <text x="636.4" y="645.289" font-family="sans-serif" font-size="2.5" text-anchor="middle" dominant-baseline="middle">4</text>
  <circle cx="713.4" cy="549.289" r="1.5" fill="black" />
  <text x="710.4" y="549.289" font-family="sans-serif" font-size="2.5" text-anchor="middle" dominant-baseline="middle">5</text>
  <circle cx="713.4" cy="581.289" r="1.5" fill="black" />
  <text x="710.4" y="581.289" font-family="sans-serif" font-size="2.5" text-anchor="middle" dominant-baseline="middle">6</text>
  <circle cx="713.4" cy="613.289" r="1.5" fill="black" />
  <text x="710.4" y="613.289" font-family="sans-serif" font-size="2.5" text-anchor="middle" dominant-baseline="middle">7</text>
  <circle cx="713.4" cy="645.289" r="1.5" fill="black" />
  <text x="710.4" y="645.289" font-family="sans-serif" font-size="2.5" text-anchor="middle" dominant-baseline="middle">8</text>
  <text x="673.4" y="597.289" font-family="sans-serif" font-size="3" text-anchor="middle" dominant-baseline="middle">U9</text>
  <rect x="578.4" y="555.289" width="10" height="20" fill="#b4c8f0" stroke="black" stroke-width="1" />
  <circle cx="583.4" cy="555.289" r="1.5" fill="black" />
  <text x="583.4" y="558.289" font-family="sans-serif" font-size="2.5" text-anchor="middle" dominant-baseline="middle">1</text>
  <circle cx="583.4" cy="575.289" r="1.5" fill="black" />
  <text x="583.4" y="572.289" font-family="sans-serif" font-size="2.5" text-anchor="middle" dominant-baseline="middle">2</text>
  <text x="583.4" y="565.289" font-family="sans-serif" font-size="3" text-anchor="middle" dominant-baseline="middle">CD9</text>
  <rect x="753.4" y="608.289" width="20" height="10" fill="#f0b4b4" stroke="black" stroke-width="1" />
  <circle cx="753.4" cy="613.289" r="1.5" fill="black" />
  <text x="756.4" y="613.289" font-family="sans-serif" font-size="2.5" text-anchor="middle" dominant-baseline="middle">1</text>
  <circle cx="773.4" cy="613.289" r="1.5" fill="black" />
  <text x="770.4" y="613.289" font-family="sans-serif" font-size="2.5" text-anchor="middle" dominant-baseline="middle">2</text>
  <text x="763.4" y="613.289" font-family="sans-serif" font-size="3" text-anchor="middle" dominant-baseline="middle">R7</text>
  <rect x="444.4" y="280.4" width="8.3" height="6" rx="1" fill="white" stroke="black" stroke-width="0.5" />
  <text x="448.55" y="283.4" font-family="sans-serif" font-size="3" font-weight="bold" text-anchor="middle" dominant-baseline="middle">GND</text>
  <rect x="444.4" y="298.178" width="10.4" height="6" rx="1" fill="white" stroke="black" stroke-width="0.5" />
  <text x="449.6" y="301.178" font-family="sans-serif" font-size="3" font-weight="bold" text-anchor="middle" dominant-baseline="middle">V3_3</text>
  <rect x="282" y="396.511" width="10.4" height="6" rx="1" fill="white" stroke="black" stroke-width="0.5" />
  <text x="287.2" y="399.511" font-family="sans-serif" font-size="3" font-weight="bold" text-anchor="middle" dominant-baseline="middle">V3_3</text>
  <rect x="504.4" y="389.289" width="10.4" height="6" rx="1" fill="white" stroke="black" stroke-width="0.5" />
  <text x="509.6" y="392.289" font-family="sans-serif" font-size="3" font-weight="bold" text-anchor="middle" dominant-baseline="middle">V3_3</text>
  <rect x="164.4" y="47.4" width="8.3" height="6" rx="1" fill="white" stroke="black" stroke-width="0.5" />
  <text x="168.55" y="50.4" font-family="sans-serif" font-size="3" font-weight="bold" text-anchor="middle" dominant-baseline="middle">GND</text>
  <rect x="164.4" y="79.4" width="10.4" height="6" rx="1" fill="white" stroke="black" stroke-width="0.5" />
  <text x="169.6" y="82.4" font-family="sans-serif" font-size="3" font-weight="bold" text-anchor="middle" dominant-baseline="middle">V3_3</text>
  <rect x="2" y="143.4" width="10.4" height="6" rx="1" fill="white" stroke="black" stroke-width="0.5" />
  <text x="7.2" y="146.4" font-family="sans-serif" font-size="3" font-weight="bold" text-anchor="middle" dominant-baseline="middle">VBAT</text>
  <rect x="224.4" y="143.4" width="8.3" height="6" rx="1" fill="white" stroke="black" stroke-width="0.5" />
  <text x="228.55" y="146.4" font-family="sans-serif" font-size="3" font-weight="bold" text-anchor="middle" dominant-baseline="middle">GND</text>
  <rect x="504.4" y="47.4" width="8.3" height="6" rx="1" fill="white" stroke="black" stroke-width="0.5" />
  <text x="508.55" y="50.4" font-family="sans-serif" font-size="3" font-weight="bold" text-anchor="middle" dominant-baseline="middle">GND</text>
  <rect x="504.4" y="79.4" width="10.4" height="6" rx="1" fill="white" stroke="black" stroke-width="0.5" />
  <text x="509.6" y="82.4" font-family="sans-serif" font-size="3" font-weight="bold" text-anchor="middle" dominant-baseline="middle">V3_3</text>
  <rect x="749.4" y="47.4" width="8.3" height="6" rx="1" fill="white" stroke="black" stroke-width="0.5" />
  <text x="753.55" y="50.4" font-family="sans-serif" font-size="3" font-weight="bold" text-anchor="middle" dominant-baseline="middle">GND</text>
  <rect x="749.4" y="79.4" width="10.4" height="6" rx="1" fill="white" stroke="black" stroke-width="0.5" />
  <text x="754.6" y="82.4" font-family="sans-serif" font-size="3" font-weight="bold" text-anchor="middle" dominant-baseline="middle">V3_3</text>
  <rect x="191.9" y="296.844" width="8.3" height="6" rx="1" fill="white" stroke="black" stroke-width="0.5" />
  <text x="196.05" y="299.844" font-family="sans-serif" font-size="3" font-weight="bold" text-anchor="middle" dominant-baseline="middle">GND</text>
  <rect x="191.9" y="328.844" width="10.4" height="6" rx="1" fill="white" stroke="black" stroke-width="0.5" />
  <text x="197.1" y="331.844" font-family="sans-serif" font-size="3" font-weight="bold" text-anchor="middle" dominant-baseline="middle">V3_3</text>
  <rect x="751.9" y="296.844" width="8.3" height="6" rx="1" fill="white" stroke="black" stroke-width="0.5" />
  <text x="756.05" y="299.844" font-family="sans-serif" font-size="3" font-weight="bold" text-anchor="middle" dominant-baseline="middle">GND</text>
  <rect x="751.9" y="328.844" width="10.4" height="6" rx="1" fill="white" stroke="black" stroke-width="0.5" />
  <text x="757.1" y="331.844" font-family="sans-serif" font-size="3" font-weight="bold" text-anchor="middle" dominant-baseline="middle">V3_3</text>
  <rect x="591.6" y="392.844" width="8.3" height="6" rx="1" fill="white" stroke="black" stroke-width="0.5" />
  <text x="595.75" y="395.844" font-family="sans-serif" font-size="3" font-weight="bold" text-anchor="middle" dominant-baseline="middle">GND</text>
  <rect x="191.9" y="546.289" width="8.3" height="6" rx="1" fill="white" stroke="black" stroke-width="0.5" />
  <text x="196.05" y="549.289" font-family="sans-serif" font-size="3" font-weight="bold" text-anchor="middle" dominant-baseline="middle">GND</text>
  <rect x="191.9" y="578.289" width="10.4" height="6" rx="1" fill="white" stroke="black" stroke-width="0.5" />
  <text x="197.1" y="581.289" font-family="sans-serif" font-size="3" font-weight="bold" text-anchor="middle" dominant-baseline="middle">V3_3</text>
  <rect x="441.9" y="546.289" width="8.3" height="6" rx="1" fill="white" stroke="black" stroke-width="0.5" />
  <text x="446.05" y="549.289" font-family="sans-serif" font-size="3" font-weight="bold" text-anchor="middle" dominant-baseline="middle">GND</text>
  <rect x="441.9" y="578.289" width="10.4" height="6" rx="1" fill="white" stroke="black" stroke-width="0.5" />
  <text x="447.1" y="581.289" font-family="sans-serif" font-size="3" font-weight="bold" text-anchor="middle" dominant-baseline="middle">V3_3</text>
  <rect x="501.9" y="610.289" width="8.3" height="6" rx="1" fill="white" stroke="black" stroke-width="0.5" />
  <text x="506.05" y="613.289" font-family="sans-serif" font-size="3" font-weight="bold" text-anchor="middle" dominant-baseline="middle">GND</text>
  <rect x="719.4" y="546.289" width="8.3" height="6" rx="1" fill="white" stroke="black" stroke-width="0.5" />
  <text x="723.55" y="549.289" font-family="sans-serif" font-size="3" font-weight="bold" text-anchor="middle" dominant-baseline="middle">GND</text>
  <rect x="719.4" y="578.289" width="10.4" height="6" rx="1" fill="white" stroke="black" stroke-width="0.5" />
  <text x="724.6" y="581.289" font-family="sans-serif" font-size="3" font-weight="bold" text-anchor="middle" dominant-baseline="middle">V3_3</text>
  <rect x="779.4" y="610.289" width="8.3" height="6" rx="1" fill="white" stroke="black" stroke-width="0.5" />
  <text x="783.55" y="613.289" font-family="sans-serif" font-size="3" font-weight="bold" text-anchor="middle" dominant-baseline="middle">GND</text>
  <rect x="346.4" y="323.178" width="6" height="6" rx="1" fill="white" stroke="black" stroke-width="0.5" />
  <text x="349.4" y="326.178" font-family="sans-serif" font-size="3" font-weight="bold" text-anchor="middle" dominant-baseline="middle">1</text>
  <rect x="66.4" y="111.4" width="6" height="6" rx="1" fill="white" stroke="black" stroke-width="0.5" />
  <text x="69.4" y="114.4" font-family="sans-serif" font-size="3" font-weight="bold" text-anchor="middle" dominant-baseline="middle">1</text>
  <rect x="444.4" y="315.956" width="6" height="6" rx="1" fill="white" stroke="black" stroke-width="0.5" />
  <text x="447.4" y="318.956" font-family="sans-serif" font-size="3" font-weight="bold" text-anchor="middle" dominant-baseline="middle">2</text>
  <rect x="406.4" y="111.4" width="6" height="6" rx="1" fill="white" stroke="black" stroke-width="0.5" />
  <text x="409.4" y="114.4" font-family="sans-serif" font-size="3" font-weight="bold" text-anchor="middle" dominant-baseline="middle">2</text>
  <rect x="346.4" y="340.956" width="6" height="6" rx="1" fill="white" stroke="black" stroke-width="0.5" />
  <text x="349.4" y="343.956" font-family="sans-serif" font-size="3" font-weight="bold" text-anchor="middle" dominant-baseline="middle">3</text>
  <rect x="651.4" y="111.4" width="6" height="6" rx="1" fill="white" stroke="black" stroke-width="0.5" />
  <text x="654.4" y="114.4" font-family="sans-serif" font-size="3" font-weight="bold" text-anchor="middle" dominant-baseline="middle">3</text>
  <rect x="444.4" y="351.511" width="6" height="6" rx="1" fill="white" stroke="black" stroke-width="0.5" />
  <text x="447.4" y="354.511" font-family="sans-serif" font-size="3" font-weight="bold" text-anchor="middle" dominant-baseline="middle">4</text>
  <rect x="93.9" y="610.289" width="6" height="6" rx="1" fill="white" stroke="black" stroke-width="0.5" />
  <text x="96.9" y="613.289" font-family="sans-serif" font-size="3" font-weight="bold" text-anchor="middle" dominant-baseline="middle">4</text>
  <rect x="346.4" y="376.511" width="6" height="6" rx="1" fill="white" stroke="black" stroke-width="0.5" />
  <text x="349.4" y="379.511" font-family="sans-serif" font-size="3" font-weight="bold" text-anchor="middle" dominant-baseline="middle">5</text>
  <rect x="343.9" y="610.289" width="6" height="6" rx="1" fill="white" stroke="black" stroke-width="0.5" />
  <text x="346.9" y="613.289" font-family="sans-serif" font-size="3" font-weight="bold" text-anchor="middle" dominant-baseline="middle">5</text>
  <rect x="444.4" y="369.289" width="6" height="6" rx="1" fill="white" stroke="black" stroke-width="0.5" />
  <text x="447.4" y="372.289" font-family="sans-serif" font-size="3" font-weight="bold" text-anchor="middle" dominant-baseline="middle">6</text>
  <rect x="621.4" y="610.289" width="6" height="6" rx="1" fill="white" stroke="black" stroke-width="0.5" />
  <text x="624.4" y="613.289" font-family="sans-serif" font-size="3" font-weight="bold" text-anchor="middle" dominant-baseline="middle">6</text>
  <rect x="191.9" y="360.844" width="6" height="6" rx="1" fill="white" stroke="black" stroke-width="0.5" />
  <text x="194.9" y="363.844" font-family="sans-serif" font-size="3" font-weight="bold" text-anchor="middle" dominant-baseline="middle">7</text>
  <rect x="191.9" y="610.289" width="6" height="6" rx="1" fill="white" stroke="black" stroke-width="0.5" />
  <text x="194.9" y="613.289" font-family="sans-serif" font-size="3" font-weight="bold" text-anchor="middle" dominant-baseline="middle">7</text>
</svg>
