<svg xmlns="http://www.w3.org/2000/svg" width="791.8" height="705.689" viewBox="0 0 791.8 705.689">
  <polyline points="308.4,291.178 308.4,286.178 358.4,286.178" fill="none" stroke="blue" stroke-width="1" />
  <polyline points="308.4,311.178 308.4,316.178 358.4,316.178" fill="none" stroke="blue" stroke-width="1" />
  <polyline points="318.4,409.511 358.4,409.511" fill="none" stroke="blue" stroke-width="1" />
  <polyline points="478.4,402.289 438.4,402.289" fill="none" stroke="blue" stroke-width="1" />
  <polyline points="28.4,66.4 28.4,60.4 78.4,60.4" fill="none" stroke="blue" stroke-width="1" />
  <polyline points="28.4,86.4 28.4,92.4 78.4,92.4" fill="none" stroke="blue" stroke-width="1" />
  <polyline points="38.4,156.4 78.4,156.4" fill="none" stroke="blue" stroke-width="1" />
  <polyline points="198.4,156.4 158.4,156.4" fill="none" stroke="blue" stroke-width="1" />
  <polyline points="368.4,66.4 368.4,60.4 418.4,60.4" fill="none" stroke="blue" stroke-width="1" />
  <polyline points="368.4,86.4 368.4,92.4 418.4,92.4" fill="none" stroke="blue" stroke-width="1" />
  <polyline points="378.4,156.4 418.4,156.4" fill="none" stroke="blue" stroke-width="1" />
  <polyline points="318.4,156.4 358.4,156.4" fill="none" stroke="blue" stroke-width="1" />
  <polyline points="613.4,66.4 613.4,60.4 663.4,60.4" fill="none" stroke="blue" stroke-width="1" />
  <polyline points="613.4,86.4 613.4,92.4 663.4,92.4" fill="none" stroke="blue" stroke-width="1" />
  <polyline points="55.9,315.844 55.9,309.844 105.9,309.844" fill="none" stroke="blue" stroke-width="1" />
  <polyline points="55.9,335.844 55.9,341.844 105.9,341.844" fill="none" stroke="blue" stroke-width="1" />
  <polyline points="615.9,315.844 615.9,309.844 665.9,309.844" fill="none" stroke="blue" stroke-width="1" />
  <polyline points="615.9,335.844 615.9,341.844 665.9,341.844" fill="none" stroke="blue" stroke-width="1" />
  <polyline points="625.9,405.844 665.9,405.844" fill="none" stroke="blue" stroke-width="1" />
  <polyline points="55.9,565.289 55.9,559.289 105.9,559.289" fill="none" stroke="blue" stroke-width="1" />
  <polyline points="55.9,585.289 55.9,591.289 105.9,591.289" fill="none" stroke="blue" stroke-width="1" />
  <polyline points="305.9,565.289 305.9,559.289 355.9,559.289" fill="none" stroke="blue" stroke-width="1" />
  <polyline points="305.9,585.289 305.9,591.289 355.9,591.289" fill="none" stroke="blue" stroke-width="1" />
  <polyline points="475.9,623.289 435.9,623.289" fill="none" stroke="blue" stroke-width="1" />
  <polyline points="583.4,565.289 583.4,559.289 633.4,559.289" fill="none" stroke="blue" stroke-width="1" />
  <polyline points="583.4,585.289 583.4,591.289 633.4,591.289" fill="none" stroke="blue" stroke-width="1" />
  <polyline points="753.4,623.289 713.4,623.289" fill="none" stroke="blue" stroke-width="1" />
  <polyline points="438.4,328.956 464.8,328.956 464.8,198.4 288.4,198.4 288.4,124.4 418.4,124.4" fill="none" stroke="blue" stroke-width="1" />
  <polyline points="438.4,346.733 524.8,346.733 524.8,457.289 95.9,457.289 95.9,373.844 105.9,373.844" fill="none" stroke="blue" stroke-width="1" />
  <polyline points="358.4,371.733 336.4,371.733 336.4,258.4 641.4,258.4 641.4,373.844 665.9,373.844" fill="none" stroke="blue" stroke-width="1" />
  <polyline points="358.4,389.511 345.9,389.511 345.9,623.289 355.9,623.289" fill="none" stroke="blue" stroke-width="1" />
  <polyline points="158.4,124.4 232.7,124.4 232.7,18.4 524.8,18.4 524.8,124.4 498.4,124.4" fill="none" stroke="blue" stroke-width="1" />
  <polyline points="743.4,124.4 772.3,124.4 772.3,373.844 745.9,373.844" fill="none" stroke="blue" stroke-width="1" />
  <polyline points="185.9,373.844 212.3,373.844 212.3,623.289 185.9,623.289" fill="none" stroke="blue" stroke-width="1" />
  <rect x="358.4" y="268.4" width="80" height="178.889" fill="#f5e6a8" stroke="black" stroke-width="1" />
  <circle cx="358.4" cy="286.178" r="1.5" fill="black" />
  <text x="361.4" y="286.178" font-family="sans-serif" font-size="2.5" text-anchor="middle" dominant-baseline="middle">1</text>
  <circle cx="358.4" cy="316.178" r="1.5" fill="black" />
  <text x="361.4" y="316.178" font-family="sans-serif" font-size="2.5" text-anchor="middle" dominant-baseline="middle">2</text>
  <circle cx="358.4" cy="336.178" r="1.5" fill="black" />
  <text x="361.4" y="336.178" font-family="sans-serif" font-size="2.5" text-anchor="middle" dominant-baseline="middle">3</text>
  <circle cx="358.4" cy="353.956" r="1.5" fill="black" />
  <text x="361.4" y="353.956" font-family="sans-serif" font-size="2.5" text-anchor="middle" dominant-baseline="middle">4</text>
  <circle cx="358.4" cy="371.733" r="1.5" fill="black" />
  <text x="361.4" y="371.733" font-family="sans-serif" font-size="2.5" text-anchor="middle" dominant-baseline="middle">5</text>
  <circle cx="358.4" cy="389.511" r="1.5" fill="black" />
  <text x="361.4" y="389.511" font-family="sans-serif" font-size="2.5" text-anchor="middle" dominant-baseline="middle">6</text>
  <circle cx="358.4" cy="409.511" r="1.5" fill="black" />
  <text x="361.4" y="409.511" font-family="sans-serif" font-size="2.5" text-anchor="middle" dominant-baseline="middle">7</text>
  <circle cx="358.4" cy="429.511" r="1.5" fill="black" />
  <text x="361.4" y="429.511" font-family="sans-serif" font-size="2.5" text-anchor="middle" dominant-baseline="middle">8</text>
  <circle cx="438.4" cy="293.4" r="1.5" fill="black" />
  <text x="435.4" y="293.4" font-family="sans-serif" font-size="2.5" text-anchor="middle" dominant-baseline="middle">9</text>
  <circle cx="438.4" cy="311.178" r="1.5" fill="black" />
  <text x="435.4" y="311.178" font-family="sans-serif" font-size="2.5" text-anchor="middle" dominant-baseline="middle">10</text>
  <circle cx="438.4" cy="328.956" r="1.5" fill="black" />
  <text x="435.4" y="328.956" font-family="sans-serif" font-size="2.5" text-anchor="middle" dominant-baseline="middle">11</text>
  <circle cx="438.4" cy="346.733" r="1.5" fill="black" />
  <text x="435.4" y="346.733" font-family="sans-serif" font-size="2.5" text-anchor="middle" dominant-baseline="middle">12</text>
  <circle cx="438.4" cy="364.511" r="1.5" fill="black" />
  <text x="435.4" y="364.511" font-family="sans-serif" font-size="2.5" text-anchor="middle" dominant-baseline="middle">13</text>
  <circle cx="438.4" cy="382.289" r="1.5" fill="black" />
  <text x="435.4" y="382.289" font-family="sans-serif" font-size="2.5" text-anchor="middle" dominant-baseline="middle">14</text>
  <circle cx="438.4" cy="402.289" r="1.5" fill="black" />
  <text x="435.4" y="402.289" font-family="sans-serif" font-size="2.5" text-anchor="middle" dominant-baseline="middle">15</text>
  <circle cx="438.4" cy="422.289" r="1.5" fill="black" />
  <text x="435.4" y="422.289" font-family="sans-serif" font-size="2.5" text-anchor="middle" dominant-baseline="middle">16</text>
  <text x="398.4" y="357.844" font-family="sans-serif" font-size="3" text-anchor="middle" dominant-baseline="middle">U1</text>
  <rect x="303.4" y="291.178" width="10" height="20" fill="#b4c8f0" stroke="black" stroke-width="1" />
  <circle cx="308.4" cy="291.178" r="1.5" fill="black" />
  <text x="308.4" y="294.178" font-family="sans-serif" font-size="2.5" text-anchor="middle" dominant-baseline="middle">1</text>
  <circle cx="308.4" cy="311.178" r="1.5" fill="black" />
  <text x="308.4" y="308.178" font-family="sans-serif" font-size="2.5" text-anchor="middle" dominant-baseline="middle">2</text>
  <text x="308.4" y="301.178" font-family="sans-serif" font-size="3" text-anchor="middle" dominant-baseline="middle">CD1</text>
  <rect x="298.4" y="404.511" width="20" height="10" fill="#f0b4b4" stroke="black" stroke-width="1" />
  <circle cx="318.4" cy="409.511" r="1.5" fill="black" />
  <text x="315.4" y="409.511" font-family="sans-serif" font-size="2.5" text-anchor="middle" dominant-baseline="middle">2</text>
  <circle cx="298.4" cy="409.511" r="1.5" fill="black" />
  <text x="301.4" y="409.511" font-family="sans-serif" font-size="2.5" text-anchor="middle" dominant-baseline="middle">1</text>
  <text x="308.4" y="409.511" font-family="sans-serif" font-size="3" text-anchor="middle" dominant-baseline="middle">R1</text>
  <rect x="478.4" y="397.289" width="20" height="10" fill="#f0b4b4" stroke="black" stroke-width="1" />
  <circle cx="478.4" cy="402.289" r="1.5" fill="black" />
  <text x="481.4" y="402.289" font-family="sans-serif" font-size="2.5" text-anchor="middle" dominant-baseline="middle">2</text>
  <circle cx="498.4" cy="402.289" r="1.5" fill="black" />
  <text x="495.4" y="402.289" font-family="sans-serif" font-size="2.5" text-anchor="middle" dominant-baseline="middle">1</text>
  <text x="488.4" y="402.289" font-family="sans-serif" font-size="3" text-anchor="middle" dominant-baseline="middle">R2</text>
  <rect x="78.4" y="28.4" width="80" height="160" fill="#f5e6a8" stroke="black" stroke-width="1" />
  <circle cx="78.4" cy="60.4" r="1.5" fill="black" />
  <text x="81.4" y="60.4" font-family="sans-serif" font-size="2.5" text-anchor="middle" dominant-baseline="middle">1</text>
  <circle cx="78.4" cy="92.4" r="1.5" fill="black" />
  <text x="81.4" y="92.4" font-family="sans-serif" font-size="2.5" text-anchor="middle" dominant-baseline="middle">2</text>
  <circle cx="78.4" cy="124.4" r="1.5" fill="black" />
  <text x="81.4" y="124.4" font-family="sans-serif" font-size="2.5" text-anchor="middle" dominant-baseline="middle">3</text>
  <circle cx="78.4" cy="156.4" r="1.5" fill="black" />
  <text x="81.4" y="156.4" font-family="sans-serif" font-size="2.5" text-anchor="middle" dominant-baseline="middle">4</text>
  <circle cx="158.4" cy="60.4" r="1.5" fill="black" />
  <text x="155.4" y="60.4" font-family="sans-serif" font-size="2.5" text-anchor="middle" dominant-baseline="middle">5</text>
  <circle cx="158.4" cy="92.4" r="1.5" fill="black" />
  <text x="155.4" y="92.4" font-family="sans-serif" font-size="2.5" text-anchor="middle" dominant-baseline="middle">6</text>
  <circle cx="158.4" cy="124.4" r="1.5" fill="black" />
  <text x="155.4" y="124.4" font-family="sans-serif" font-size="2.5" text-anchor="middle" dominant-baseline="middle">7</text>
  <circle cx="158.4" cy="156.4" r="1.5" fill="black" />
  <text x="155.4" y="156.4" font-family="sans-serif" font-size="2.5" text-anchor="middle" dominant-baseline="middle">8</text>
  <text x="118.4" y="108.4" font-family="sans-serif" font-size="3" text-anchor="middle" dominant-baseline="middle">U2</text>
  <rect x="23.4" y="66.4" width="10" height="20" fill="#b4c8f0" stroke="black" stroke-width="1" />
  <circle cx="28.4" cy="66.4" r="1.5" fill="black" />
  <text x="28.4" y="69.4" font-family="sans-serif" font-size="2.5" text-anchor="middle" dominant-baseline="middle">1</text>
  <circle cx="28.4" cy="86.4" r="1.5" fill="black" />
  <text x="28.4" y="83.4" font-family="sans-serif" font-size="2.5" text-anchor="middle" dominant-baseline="middle">2</text>
  <text x="28.4" y="76.4" font-family="sans-serif" font-size="3" text-anchor="middle" dominant-baseline="middle">CD2</text>
  <rect x="18.4" y="151.4" width="20" height="10" fill="#f0b4b4" stroke="black" stroke-width="1" />
  <circle cx="38.4" cy="156.4" r="1.5" fill="black" />
  <text x="35.4" y="156.4" font-family="sans-serif" font-size="2.5" text-anchor="middle" dominant-baseline="middle">2</text>
  <circle cx="18.4" cy="156.4" r="1.5" fill="black" />
  <text x="21.4" y="156.4" font-family="sans-serif" font-size="2.5" text-anchor="middle" dominant-baseline="middle">1</text>
  <text x="28.4" y="156.4" font-family="sans-serif" font-size="3" text-anchor="middle" dominant-baseline="middle">R3</text>
  <rect x="198.4" y="151.4" width="20" height="10" fill="#b4c8f0" stroke="black" stroke-width="1" />
  <circle cx="198.4" cy="156.4" r="1.5" fill="black" />
  <text x="201.4" y="156.4" font-family="sans-serif" font-size="2.5" text-anchor="middle" dominant-baseline="middle">1</text>
  <circle cx="218.4" cy="156.4" r="1.5" fill="black" />
  <text x="215.4" y="156.4" font-family="sans-serif" font-size="2.5" text-anchor="middle" dominant-baseline="middle">2</text>
  <text x="208.4" y="156.4" font-family="sans-serif" font-size="3" text-anchor="middle" dominant-baseline="middle">CB1</text>
  <rect x="418.4" y="28.4" width="80" height="160" fill="#f5e6a8" stroke="black" stroke-width="1" />
  <circle cx="418.4" cy="60.4" r="1.5" fill="black" />
  <text x="421.4" y="60.4" font-family="sans-serif" font-size="2.5" text-anchor="middle" dominant-baseline="middle">1</text>
  <circle cx="418.4" cy="92.4" r="1.5" fill="black" />
  <text x="421.4" y="92.4" font-family="sans-serif" font-size="2.5" text-anchor="middle" dominant-baseline="middle">2</text>
  <circle cx="418.4" cy="124.4" r="1.5" fill="black" />
  <text x="421.4" y="124.4" font-family="sans-serif" font-size="2.5" text-anchor="middle" dominant-baseline="middle">3</text>
  <circle cx="418.4" cy="156.4" r="1.5" fill="black" />
  <text x="421.4" y="156.4" font-family="sans-serif" font-size="2.5" text-anchor="middle" dominant-baseline="middle">4</text>
  <circle cx="498.4" cy="60.4" r="1.5" fill="black" />
  <text x="495.4" y="60.4" font-family="sans-serif" font-size="2.5" text-anchor="middle" dominant-baseline="middle">5</text>
  <circle cx="498.4" cy="92.4" r="1.5" fill="black" />
  <text x="495.4" y="92.4" font-family="sans-serif" font-size="2.5" text-anchor="middle" dominant-baseline="middle">6</text>
  <circle cx="498.4" cy="124.4" r="1.5" fill="black" />
  <text x="495.4" y="124.4" font-family="sans-serif" font-size="2.5" text-anchor="middle" dominant-baseline="middle">7</text>
  <circle cx="498.4" cy="156.4" r="1.5" fill="black" />
  <text x="495.4" y="156.4" font-family="sans-serif" font-size="2.5" text-anchor="middle" dominant-baseline="middle">8</text>
  <text x="458.4" y="108.4" font-family="sans-serif" font-size="3" text-anchor="middle" dominant-baseline="middle">U3</text>
  <rect x="363.4" y="66.4" width="10" height="20" fill="#b4c8f0" stroke="black" stroke-width="1" />
  <circle cx="368.4" cy="66.4" r="1.5" fill="black" />
  <text x="368.4" y="69.4" font-family="sans-serif" font-size="2.5" text-anchor="middle" dominant-baseline="middle">1</text>
  <circle cx="368.4" cy="86.4" r="1.5" fill="black" />
  <text x="368.4" y="83.4" font-family="sans-serif" font-size="2.5" text-anchor="middle" dominant-baseline="middle">2</text>
  <text x="368.4" y="76.4" font-family="sans-serif" font-size="3" text-anchor="middle" dominant-baseline="middle">CD3</text>
  <rect x="358.4" y="151.4" width="20" height="10" fill="#f0b4b4" stroke="black" stroke-width="1" />
  <circle cx="378.4" cy="156.4" r="1.5" fill="black" />
  <text x="375.4" y="156.4" font-family="sans-serif" font-size="2.5" text-anchor="middle" dominant-baseline="middle">1</text>
  <circle cx="358.4" cy="156.4" r="1.5" fill="black" />
  <text x="361.4" y="156.4" font-family="sans-serif" font-size="2.5" text-anchor="middle" dominant-baseline="middle">2</text>
  <text x="368.4" y="156.4" font-family="sans-serif" font-size="3" text-anchor="middle" dominant-baseline="middle">R4</text>
  <rect x="298.4" y="151.4" width="20" height="10" fill="#f0b4b4" stroke="black" stroke-width="1" />
  <circle cx="318.4" cy="156.4" r="1.5" fill="black" />
  <text x="315.4" y="156.4" font-family="sans-serif" font-size="2.5" text-anchor="middle" dominant-baseline="middle">1</text>
  <circle cx="298.4" cy="156.4" r="1.5" fill="black" />
  <text x="301.4" y="156.4" font-family="sans-serif" font-size="2.5" text-anchor="middle" dominant-baseline="middle">2</text>
  <text x="308.4" y="156.4" font-family="sans-serif" font-size="3" text-anchor="middle" dominant-baseline="middle">R5</text>
  <rect x="663.4" y="28.4" width="80" height="160" fill="#f5e6a8" stroke="black" stroke-width="1" />
  <circle cx="663.4" cy="60.4" r="1.5" fill="black" />
  <text x="666.4" y="60.4" font-family="sans-serif" font-size="2.5" text-anchor="middle" dominant-baseline="middle">1</text>
  <circle cx="663.4" cy="92.4" r="1.5" fill="black" />
  <text x="666.4" y="92.4" font-family="sans-serif" font-size="2.5" text-anchor="middle" dominant-baseline="middle">2</text>
  <circle cx="663.4" cy="124.4" r="1.5" fill="black" />
  <text x="666.4" y="124.4" font-family="sans-serif" font-size="2.5" text-anchor="middle" dominant-baseline="middle">3</text>
  <circle cx="663.4" cy="156.4" r="1.5" fill="black" />
  <text x="666.4" y="156.4" font-family="sans-serif" font-size="2.5" text-anchor="middle" dominant-baseline="middle">4</text>
  <circle cx="743.4" cy="60.4" r="1.5" fill="black" />
  <text x="740.4" y="60.4" font-family="sans-serif" font-size="2.5" text-anchor="middle" dominant-baseline="middle">5</text>
  <circle cx="743.4" cy="92.4" r="1.5" fill="black" />
  <text x="740.4" y="92.4" font-family="sans-serif" font-size="2.5" text-anchor="middle" dominant-baseline="middle">6</text>
  <circle cx="743.4" cy="124.4" r="1.5" fill="black" />
  <text x="740.4" y="124.4" font-family="sans-serif" font-size="2.5" text-anchor="middle" dominant-baseline="middle">7</text>
  <circle cx="743.4" cy="156.4" r="1.5" fill="black" />
  <text x="740.4" y="156.4" font-family="sans-serif" font-size="2.5" text-anchor="middle" dominant-baseline="middle">8</text>
  <text x="703.4" y="108.4" font-family="sans-serif" font-size="3" text-anchor="middle" dominant-baseline="middle">U4</text>
  <rect x="608.4" y="66.4" width="10" height="20" fill="#b4c8f0" stroke="black" stroke-width="1" />
  <circle cx="613.4" cy="66.4" r="1.5" fill="black" />
  <text x="613.4" y="69.4" font-family="sans-serif" font-size="2.5" text-anchor="middle" dominant-baseline="middle">1</text>
  <circle cx="613.4" cy="86.4" r="1.5" fill="black" />
  <text x="613.4" y="83.4" font-family="sans-serif" font-size="2.5" text-anchor="middle" dominant-baseline="middle">2</text>
  <text x="613.4" y="76.4" font-family="sans-serif" font-size="3" text-anchor="middle" dominant-baseline="middle">CD4</text>
  <rect x="105.9" y="277.844" width="80" height="160" fill="#f5e6a8" stroke="black" stroke-width="1" />
  <circle cx="105.9" cy="309.844" r="1.5" fill="black" />
  <text x="108.9" y="309.844" font-family="sans-serif" font-size="2.5" text-anchor="middle" dominant-baseline="middle">1</text>
  <circle cx="105.9" cy="341.844" r="1.5" fill="black" />
  <text x="108.9" y="341.844" font-family="sans-serif" font-size="2.5" text-anchor="middle" dominant-baseline="middle">2</text>
  <circle cx="105.9" cy="373.844" r="1.5" fill="black" />
  <text x="108.9" y="373.844" font-family="sans-serif" font-size="2.5" text-anchor="middle" dominant-baseline="middle">3</text>
  <circle cx="105.9" cy="405.844" r="1.5" fill="black" />
  <text x="108.9" y="405.844" font-family="sans-serif" font-size="2.5" text-anchor="middle" dominant-baseline="middle">4</text>
  <circle cx="185.9" cy="309.844" r="1.5" fill="black" />
  <text x="182.9" y="309.844" font-family="sans-serif" font-size="2.5" text-anchor="middle" dominant-baseline="middle">5</text>
  <circle cx="185.9" cy="341.844" r="1.5" fill="black" />
  <text x="182.9" y="341.844" font-family="sans-serif" font-size="2.5" text-anchor="middle" dominant-baseline="middle">6</text>
  <circle cx="185.9" cy="373.844" r="1.5" fill="black" />
  <text x="182.9" y="373.844" font-family="sans-serif" font-size="2.5" text-anchor="middle" dominant-baseline="middle">7</text>
  <circle cx="185.9" cy="405.844" r="1.5" fill="black" />
  <text x="182.9" y="405.844" font-family="sans-serif" font-size="2.5" text-anchor="middle" dominant-baseline="middle">8</text>
  <text x="145.9" y="357.844" font-family="sans-serif" font-size="3" text-anchor="middle" dominant-baseline="middle">U5</text>
  <rect x="50.9" y="315.844" width="10" height="20" fill="#b4c8f0" stroke="black" stroke-width="1" />
  <circle cx="55.9" cy="315.844" r="1.5" fill="black" />
  <text x="55.9" y="318.844" font-family="sans-serif" font-size="2.5" text-anchor="middle" dominant-baseline="middle">1</text>
  <circle cx="55.9" cy="335.844" r="1.5" fill="black" />
  <text x="55.9" y="332.844" font-family="sans-serif" font-size="2.5" text-anchor="middle" dominant-baseline="middle">2</text>
  <text x="55.9" y="325.844" font-family="sans-serif" font-size="3" text-anchor="middle" dominant-baseline="middle">CD5</text>
  <rect x="665.9" y="277.844" width="80" height="160" fill="#f5e6a8" stroke="black" stroke-width="1" />
  <circle cx="665.9" cy="309.844" r="1.5" fill="black" />
  <text x="668.9" y="309.844" font-family="sans-serif" font-size="2.5" text-anchor="middle" dominant-baseline="middle">1</text>
  <circle cx="665.9" cy="341.844" r="1.5" fill="black" />
  <text x="668.9" y="341.844" font-family="sans-serif" font-size="2.5" text-anchor="middle" dominant-baseline="middle">2</text>
  <circle cx="665.9" cy="373.844" r="1.5" fill="black" />
  <text x="668.9" y="373.844" font-family="sans-serif" font-size="2.5" text-anchor="middle" dominant-baseline="middle">3</text>
  <circle cx="665.9" cy="405.844" r="1.5" fill="black" />
  <text x="668.9" y="405.844" font-family="sans-serif" font-size="2.5" text-anchor="middle" dominant-baseline="middle">4</text>
  <circle cx="745.9" cy="309.844" r="1.5" fill="black" />
  <text x="742.9" y="309.844" font-family="sans-serif" font-size="2.5" text-anchor="middle" dominant-baseline="middle">5</text>
  <circle cx="745.9" cy="341.844" r="1.5" fill="black" />
  <text x="742.9" y="341.844" font-family="sans-serif" font-size="2.5" text-anchor="middle" dominant-baseline="middle">6</text>
  <circle cx="745.9" cy="373.844" r="1.5" fill="black" />
  <text x="742.9" y="373.844" font-family="sans-serif" font-size="2.5" text-anchor="middle" dominant-baseline="middle">7</text>
  <circle cx="745.9" cy="405.844" r="1.5" fill="black" />
  <text x="742.9" y="405.844" font-family="sans-serif" font-size="2.5" text-anchor="middle" dominant-baseline="middle">8</text>
  <text x="705.9" y="357.844" font-family="sans-serif" font-size="3" text-anchor="middle" dominant-baseline="middle">U6</text>
  <rect x="610.9" y="315.844" width="10" height="20" fill="#b4c8f0" stroke="black" stroke-width="1" />
  <circle cx="615.9" cy="315.844" r="1.5" fill="black" />
  <text x="615.9" y="318.844" font-family="sans-serif" font-size="2.5" text-anchor="middle" dominant-baseline="middle">1</text>
  <circle cx="615.9" cy="335.844" r="1.5" fill="black" />
  <text x="615.9" y="332.844" font-family="sans-serif" font-size="2.5" text-anchor="middle" dominant-baseline="middle">2</text>
  <text x="615.9" y="325.844" font-family="sans-serif" font-size="3" text-anchor="middle" dominant-baseline="middle">CD6</text>
  <rect x="605.9" y="400.844" width="20" height="10" fill="#b4c8f0" stroke="black" stroke-width="1" />
  <circle cx="625.9" cy="405.844" r="1.5" fill="black" />
  <text x="622.9" y="405.844" font-family="sans-serif" font-size="2.5" text-anchor="middle" dominant-baseline="middle">1</text>
  <circle cx="605.9" cy="405.844" r="1.5" fill="black" />
  <text x="608.9" y="405.844" font-family="sans-serif" font-size="2.5" text-anchor="middle" dominant-baseline="middle">2</text>
  <text x="615.9" y="405.844" font-family="sans-serif" font-size="3" text-anchor="middle" dominant-baseline="middle">CB2</text>
  <rect x="105.9" y="527.289" width="80" height="160" fill="#f5e6a8" stroke="black" stroke-width="1" />
  <circle cx="105.9" cy="559.289" r="1.5" fill="black" />
  <text x="108.9" y="559.289" font-family="sans-serif" font-size="2.5" text-anchor="middle" dominant-baseline="middle">1</text>
  <circle cx="105.9" cy="591.289" r="1.5" fill="black" />
  <text x="108.9" y="591.289" font-family="sans-serif" font-size="2.5" text-anchor="middle" dominant-baseline="middle">2</text>
  <circle cx="105.9" cy="623.289" r="1.5" fill="black" />
  <text x="108.9" y="623.289" font-family="sans-serif" font-size="2.5" text-anchor="middle" dominant-baseline="middle">3</text>
  <circle cx="105.9" cy="655.289" r="1.5" fill="black" />
  <text x="108.9" y="655.289" font-family="sans-serif" font-size="2.5" text-anchor="middle" dominant-baseline="middle">4</text>
  <circle cx="185.9" cy="559.289" r="1.5" fill="black" />
  <text x="182.9" y="559.289" font-family="sans-serif" font-size="2.5" text-anchor="middle" dominant-baseline="middle">5</text>
  <circle cx="185.9" cy="591.289" r="1.5" fill="black" />
  <text x="182.9" y="591.289" font-family="sans-serif" font-size="2.5" text-anchor="middle" dominant-baseline="middle">6</text>
  <circle cx="185.9" cy="623.289" r="1.5" fill="black" />
  <text x="182.9" y="623.289" font-family="sans-serif" font-size="2.5" text-anchor="middle" dominant-baseline="middle">7</text>
  <circle cx="185.9" cy="655.289" r="1.5" fill="black" />
  <text x="182.9" y="655.289" font-family="sans-serif" font-size="2.5" text-anchor="middle" dominant-baseline="middle">8</text>
  <text x="145.9" y="607.289" font-family="sans-serif" font-size="3" text-anchor="middle" dominant-baseline="middle">U7</text>
  <rect x="50.9" y="565.289" width="10" height="20" fill="#b4c8f0" stroke="black" stroke-width="1" />
  <circle cx="55.9" cy="565.289" r="1.5" fill="black" />
  <text x="55.9" y="568.289" font-family="sans-serif" font-size="2.5" text-anchor="middle" dominant-baseline="middle">1</text>
  <circle cx="55.9" cy="585.289" r="1.5" fill="black" />
  <text x="55.9" y="582.289" font-family="sans-serif" font-size="2.5" text-anchor="middle" dominant-baseline="middle">2</text>
  <text x="55.9" y="575.289" font-family="sans-serif" font-size="3" text-anchor="middle" dominant-baseline="middle">CD7</text>
  <rect x="355.9" y="527.289" width="80" height="160" fill="#f5e6a8" stroke="black" stroke-width="1" />
  <circle cx="355.9" cy="559.289" r="1.5" fill="black" />
  <text x="358.9" y="559.289" font-family="sans-serif" font-size="2.5" text-anchor="middle" dominant-baseline="middle">1</text>
  <circle cx="355.9" cy="591.289" r="1.5" fill="black" />
  <text x="358.9" y="591.289" font-family="sans-serif" font-size="2.5" text-anchor="middle" dominant-baseline="middle">2</text>
  <circle cx="355.9" cy="623.289" r="1.5" fill="black" />
  <text x="358.9" y="623.289" font-family="sans-serif" font-size="2.5" text-anchor="middle" dominant-baseline="middle">3</text>
  <circle cx="355.9" cy="655.289" r="1.5" fill="black" />
  <text x="358.9" y="655.289" font-family="sans-serif" font-size="2.5" text-anchor="middle" dominant-baseline="middle">4</text>
  <circle cx="435.9" cy="559.289" r="1.5" fill="black" />
  <text x="432.9" y="559.289" font-family="sans-serif" font-size="2.5" text-anchor="middle" dominant-baseline="middle">5</text>
  <circle cx="435.9" cy="591.289" r="1.5" fill="black" />
  <text x="432.9" y="591.289" font-family="sans-serif" font-size="2.5" text-anchor="middle" dominant-baseline="middle">6</text>
  <circle cx="435.9" cy="623.289" r="1.5" fill="black" />
  <text x="432.9" y="623.289" font-family="sans-serif" font-size="2.5" text-anchor="middle" dominant-baseline="middle">7</text>
  <circle cx="435.9" cy="655.289" r="1.5" fill="black" />
  <text x="432.9" y="655.289" font-family="sans-serif" font-size="2.5" text-anchor="middle" dominant-baseline="middle">8</text>
  <text x="395.9" y="607.289" font-family="sans-serif" font-size="3" text-anchor="middle" dominant-baseline="middle">U8</text>
  <rect x="300.9" y="565.289" width="10" height="20" fill="#b4c8f0" stroke="black" stroke-width="1" />
  <circle cx="305.9" cy="565.289" r="1.5" fill="black" />
  <text x="305.9" y="568.289" font-family="sans-serif" font-size="2.5" text-anchor="middle" dominant-baseline="middle">1</text>
  <circle cx="305.9" cy="585.289" r="1.5" fill="black" />
  <text x="305.9" y="582.289" font-family="sans-serif" font-size="2.5" text-anchor="middle" dominant-baseline="middle">2</text>
  <text x="305.9" y="575.289" font-family="sans-serif" font-size="3" text-anchor="middle" dominant-baseline="middle">CD8</text>
  <rect x="475.9" y="618.289" width="20" height="10" fill="#f0b4b4" stroke="black" stroke-width="1" />
  <circle cx="475.9" cy="623.289" r="1.5" fill="black" />
  <text x="478.9" y="623.289" font-family="sans-serif" font-size="2.5" text-anchor="middle" dominant-baseline="middle">1</text>
  <circle cx="495.9" cy="623.289" r="1.5" fill="black" />
  <text x="492.9" y="623.289" font-family="sans-serif" font-size="2.5" text-anchor="middle" dominant-baseline="middle">2</text>
  <text x="485.9" y="623.289" font-family="sans-serif" font-size="3" text-anchor="middle" dominant-baseline="middle">R6</text>
  <rect x="633.4" y="527.289" width="80" height="160" fill="#f5e6a8" stroke="black" stroke-width="1" />
  <circle cx="633.4" cy="559.289" r="1.5" fill="black" />
  <text x="636.4" y="559.289" font-family="sans-serif" font-size="2.5" text-anchor="middle" dominant-baseline="middle">1</text>
  <circle cx="633.4" cy="591.289" r="1.5" fill="black" />
  <text x="636.4" y="591.289" font-family="sans-serif" font-size="2.5" text-anchor="middle" dominant-baseline="middle">2</text>
  <circle cx="633.4" cy="623.289" r="1.5" fill="black" />
  <text x="636.4" y="623.289" font-family="sans-serif" font-size="2.5" text-anchor="middle" dominant-baseline="middle">3</text>
  <circle cx="633.4" cy="655.289" r="1.5" fill="black" />
  <text x="636.4" y="655.289" font-family="sans-serif" font-size="2.5" text-anchor="middle" dominant-baseline="middle">4</text>
  <circle cx="713.4" cy="559.289" r="1.5" fill="black" />
  <text x="710.4" y="559.289" font-family="sans-serif" font-size="2.5" text-anchor="middle" dominant-baseline="middle">5</text>
  <circle cx="713.4" cy="591.289" r="1.5" fill="black" />
  <text x="710.4" y="591.289" font-family="sans-serif" font-size="2.5" text-anchor="middle" dominant-baseline="middle">6</text>
  <circle cx="713.4" cy="623.289" r="1.5" fill="black" />
  <text x="710.4" y="623.289" font-family="sans-serif" font-size="2.5" text-anchor="middle" dominant-baseline="middle">7</text>
  <circle cx="713.4" cy="655.289" r="1.5" fill="black" />
  <text x="710.4" y="655.289" font-family="sans-serif" font-size="2.5" text-anchor="middle" dominant-baseline="middle">8</text>
  <text x="673.4" y="607.289" font-family="sans-serif" font-size="3" text-anchor="middle" dominant-baseline="middle">U9</text>
  <rect x="578.4" y="565.289" width="10" height="20" fill="#b4c8f0" stroke="black" stroke-width="1" />
  <circle cx="583.4" cy="565.289" r="1.5" fill="black" />
  <text x="583.4" y="568.289" font-family="sans-serif" font-size="2.5" text-anchor="middle" dominant-baseline="middle">1</text>
  <circle cx="583.4" cy="585.289" r="1.5" fill="black" />
  <text x="583.4" y="582.289" font-family="sans-serif" font-size="2.5" text-anchor="middle" dominant-baseline="middle">2</text>
  <text x="583.4" y="575.289" font-family="sans-serif" font-size="3" text-anchor="middle" dominant-baseline="middle">CD9</text>
  <rect x="753.4" y="618.289" width="20" height="10" fill="#f0b4b4" stroke="black" stroke-width="1" />
  <circle cx="753.4" cy="623.289" r="1.5" fill="black" />
  <text x="756.4" y="623.289" font-family="sans-serif" font-size="2.5" text-anchor="middle" dominant-baseline="middle">1</text>
  <circle cx="773.4" cy="623.289" r="1.5" fill="black" />
  <text x="770.4" y="623.289" font-family="sans-serif" font-size="2.5" text-anchor="middle" dominant-baseline="middle">2</text>
  <text x="763.4" y="623.289" font-family="sans-serif" font-size="3" text-anchor="middle" dominant-baseline="middle">R7</text>
  <rect x="444.4" y="290.4" width="8.3" height="6" rx="1" fill="white" stroke="black" stroke-width="0.5" />
  <text x="448.55" y="293.4" font-family="sans-serif" font-size="3" font-weight="bold" text-anchor="middle" dominant-baseline="middle">GND</text>
  <rect x="444.4" y="308.178" width="10.4" height="6" rx="1" fill="white" stroke="black" stroke-width="0.5" />
  <text x="449.6" y="311.178" font-family="sans-serif" font-size="3" font-weight="bold" text-anchor="middle" dominant-baseline="middle">V3_3</text>
  <rect x="282" y="406.511" width="10.4" height="6" rx="1" fill="white" stroke="black" stroke-width="0.5" />
  <text x="287.2" y="409.511" font-family="sans-serif" font-size="3" font-weight="bold" text-anchor="middle" dominant-baseline="middle">V3_3</text>
  <rect x="504.4" y="399.289" width="10.4" height="6" rx="1" fill="white" stroke="black" stroke-width="0.5" />
  <text x="509.6" y="402.289" font-family="sans-serif" font-size="3" font-weight="bold" text-anchor="middle" dominant-baseline="middle">V3_3</text>
  <rect x="164.4" y="57.4" width="8.3" height="6" rx="1" fill="white" stroke="black" stroke-width="0.5" />
  <text x="168.55" y="60.4" font-family="sans-serif" font-size="3" font-weight="bold" text-anchor="middle" dominant-baseline="middle">GND</text>
  <rect x="164.4" y="89.4" width="10.4" height="6" rx="1" fill="white" stroke="black" stroke-width="0.5" />
  <text x="169.6" y="92.4" font-family="sans-serif" font-size="3" font-weight="bold" text-anchor="middle" dominant-baseline="middle">V3_3</text>
  <rect x="2" y="153.4" width="10.4" height="6" rx="1" fill="white" stroke="black" stroke-width="0.5" />
  <text x="7.2" y="156.4" font-family="sans-serif" font-size="3" font-weight="bold" text-anchor="middle" dominant-baseline="middle">VBAT</text>
  <rect x="224.4" y="153.4" width="8.3" height="6" rx="1" fill="white" stroke="black" stroke-width="0.5" />
  <text x="228.55" y="156.4" font-family="sans-serif" font-size="3" font-weight="bold" text-anchor="middle" dominant-baseline="middle">GND</text>
  <rect x="504.4" y="57.4" width="8.3" height="6" rx="1" fill="white" stroke="black" stroke-width="0.5" />
  <text x="508.55" y="60.4" font-family="sans-serif" font-size="3" font-weight="bold" text-anchor="middle" dominant-baseline="middle">GND</text>
  <rect x="504.4" y="89.4" width="10.4" height="6" rx="1" fill="white" stroke="black" stroke-width="0.5" />
  <text x="509.6" y="92.4" font-family="sans-serif" font-size="3" font-weight="bold" text-anchor="middle" dominant-baseline="middle">V3_3</text>
  <rect x="749.4" y="57.4" width="8.3" height="6" rx="1" fill="white" stroke="black" stroke-width="0.5" />
  <text x="753.55" y="60.4" font-family="sans-serif" font-size="3" font-weight="bold" text-anchor="middle" dominant-baseline="middle">GND</text>
  <rect x="749.4" y="89.4" width="10.4" height="6" rx="1" fill="white" stroke="black" stroke-width="0.5" />
  <text x="754.6" y="92.4" font-family="sans-serif" font-size="3" font-weight="bold" text-anchor="middle" dominant-baseline="middle">V3_3</text>
  <rect x="191.9" y="306.844" width="8.3" height="6" rx="1" fill="white" stroke="black" stroke-width="0.5" />
  <text x="196.05" y="309.844" font-family="sans-serif" font-size="3" font-weight="bold" text-anchor="middle" dominant-baseline="middle">GND</text>
  <rect x="191.9" y="338.844" width="10.4" height="6" rx="1" fill="white" stroke="black" stroke-width="0.5" />
  <text x="197.1" y="341.844" font-family="sans-serif" font-size="3" font-weight="bold" text-anchor="middle" dominant-baseline="middle">V3_3</text>
  <rect x="751.9" y="306.844" width="8.3" height="6" rx="1" fill="white" stroke="black" stroke-width="0.5" />
  <text x="756.05" y="309.844" font-family="sans-serif" font-size="3" font-weight="bold" text-anchor="middle" dominant-baseline="middle">GND</text>
  <rect x="751.9" y="338.844" width="10.4" height="6" rx="1" fill="white" stroke="black" stroke-width="0.5" />
  <text x="757.1" y="341.844" font-family="sans-serif" font-size="3" font-weight="bold" text-anchor="middle" dominant-baseline="middle">V3_3</text>
  <rect x="591.6" y="402.844" width="8.3" height="6" rx="1" fill="white" stroke="black" stroke-width="0.5" />
  <text x="595.75" y="405.844" font-family="sans-serif" font-size="3" font-weight="bold" text-anchor="middle" dominant-baseline="middle">GND</text>
  <rect x="191.9" y="556.289" width="8.3" height="6" rx="1" fill="white" stroke="black" stroke-width="0.5" />
  <text x="196.05" y="559.289" font-family="sans-serif" font-size="3" font-weight="bold" text-anchor="middle" dominant-baseline="middle">GND</text>
  <rect x="191.9" y="588.289" width="10.4" height="6" rx="1" fill="white" stroke="black" stroke-width="0.5" />
  <text x="197.1" y="591.289" font-family="sans-serif" font-size="3" font-weight="bold" text-anchor="middle" dominant-baseline="middle">V3_3</text>
  <rect x="441.9" y="556.289" width="8.3" height="6" rx="1" fill="white" stroke="black" stroke-width="0.5" />
  <text x="446.05" y="559.289" font-family="sans-serif" font-size="3" font-weight="bold" text-anchor="middle" dominant-baseline="middle">GND</text>
  <rect x="441.9" y="588.289" width="10.4" height="6" rx="1" fill="white" stroke="black" stroke-width="0.5" />
  <text x="447.1" y="591.289" font-family="sans-serif" font-size="3" font-weight="bold" text-anchor="middle" dominant-baseline="middle">V3_3</text>
  <rect x="501.9" y="620.289" width="8.3" height="6" rx="1" fill="white" stroke="black" stroke-width="0.5" />
  <text x="506.05" y="623.289" font-family="sans-serif" font-size="3" font-weight="bold" text-anchor="middle" dominant-baseline="middle">GND</text>
  <rect x="719.4" y="556.289" width="8.3" height="6" rx="1" fill="white" stroke="black" stroke-width="0.5" />
  <text x="723.55" y="559.289" font-family="sans-serif" font-size="3" font-weight="bold" text-anchor="middle" dominant-baseline="middle">GND</text>
  <rect x="719.4" y="588.289" width="10.4" height="6" rx="1" fill="white" stroke="black" stroke-width="0.5" />
  <text x="724.6" y="591.289" font-family="sans-serif" font-size="3" font-weight="bold" text-anchor="middle" dominant-baseline="middle">V3_3</text>
  <rect x="779.4" y="620.289" width="8.3" height="6" rx="1" fill="white" stroke="black" stroke-width="0.5" />
  <text x="783.55" y="623.289" font-family="sans-serif" font-size="3" font-weight="bold" text-anchor="middle" dominant-baseline="middle">GND</text>
  <rect x="346.4" y="333.178" width="6" height="6" rx="1" fill="white" stroke="black" stroke-width="0.5" />
  <text x="349.4" y="336.178" font-family="sans-serif" font-size="3" font-weight="bold" text-anchor="middle" dominant-baseline="middle">1</text>
  <rect x="66.4" y="121.4" width="6" height="6" rx="1" fill="white" stroke="black" stroke-width="0.5" />
  <text x="69.4" y="124.4" font-family="sans-serif" font-size="3" font-weight="bold" text-anchor="middle" dominant-baseline="middle">1</text>
  <rect x="346.4" y="350.956" width="6" height="6" rx="1" fill="white" stroke="black" stroke-width="0.5" />
  <text x="349.4" y="353.956" font-family="sans-serif" font-size="3" font-weight="bold" text-anchor="middle" dominant-baseline="middle">2</text>
  <rect x="651.4" y="121.4" width="6" height="6" rx="1" fill="white" stroke="black" stroke-width="0.5" />
  <text x="654.4" y="124.4" font-family="sans-serif" font-size="3" font-weight="bold" text-anchor="middle" dominant-baseline="middle">2</text>
  <rect x="444.4" y="361.511" width="6" height="6" rx="1" fill="white" stroke="black" stroke-width="0.5" />
  <text x="447.4" y="364.511" font-family="sans-serif" font-size="3" font-weight="bold" text-anchor="middle" dominant-baseline="middle">3</text>
  <rect x="93.9" y="620.289" width="6" height="6" rx="1" fill="white" stroke="black" stroke-width="0.5" />
  <text x="96.9" y="623.289" font-family="sans-serif" font-size="3" font-weight="bold" text-anchor="middle" dominant-baseline="middle">3</text>
  <rect x="444.4" y="379.289" width="6" height="6" rx="1" fill="white" stroke="black" stroke-width="0.5" />
  <text x="447.4" y="382.289" font-family="sans-serif" font-size="3" font-weight="bold" text-anchor="middle" dominant-baseline="middle">4</text>
  <rect x="621.4" y="620.289" width="6" height="6" rx="1" fill="white" stroke="black" stroke-width="0.5" />
  <text x="624.4" y="623.289" font-family="sans-serif" font-size="3" font-weight="bold" text-anchor="middle" dominant-baseline="middle">4</text>
</svg>
