<svg xmlns="http://www.w3.org/2000/svg" width="544" height="244" viewBox="0 0 544 244">
  <polyline points="192,92 232,92" fill="none" stroke="black" stroke-width="1" />
  <polyline points="352,65.333 312,65.333" fill="none" stroke="black" stroke-width="1" />
  <polyline points="352,118.667 312,118.667" fill="none" stroke="black" stroke-width="1" />
  <polyline points="272,212 272,172" fill="none" stroke="black" stroke-width="1" />
  <polyline points="492,212 492,172" fill="none" stroke="black" stroke-width="1" />
  <polyline points="52,212 52,172" fill="none" stroke="black" stroke-width="1" />
  <polyline points="172,92 92,92" fill="none" stroke="black" stroke-width="1" />
  <polyline points="372,65.333 452,65.333" fill="none" stroke="black" stroke-width="1" />
  <polyline points="372,118.667 452,118.667" fill="none" stroke="black" stroke-width="1" />
  <rect x="232" y="12" width="80" height="160" fill="#f5e6a8" stroke="black" stroke-width="1" />
  <circle cx="232" cy="92" r="1.5" fill="black" />
  <text x="235" y="92" font-family="sans-serif" font-size="2.5" text-anchor="middle" dominant-baseline="middle">1</text>
  <circle cx="312" cy="65.333" r="1.5" fill="black" />
  <text x="309" y="65.333" font-family="sans-serif" font-size="2.5" text-anchor="middle" dominant-baseline="middle">2</text>
  <circle cx="312" cy="118.667" r="1.5" fill="black" />
  <text x="309" y="118.667" font-family="sans-serif" font-size="2.5" text-anchor="middle" dominant-baseline="middle">3</text>
  <circle cx="272" cy="172" r="1.5" fill="black" />
  <text x="272" y="169" font-family="sans-serif" font-size="2.5" text-anchor="middle" dominant-baseline="middle">4</text>
  <text x="272" y="92" font-family="sans-serif" font-size="3" text-anchor="middle" dominant-baseline="middle">U1</text>
  <rect x="172" y="87" width="20" height="10" fill="#f0b4b4" stroke="black" stroke-width="1" />
  <circle cx="192" cy="92" r="1.5" fill="black" />
  <text x="189" y="92" font-family="sans-serif" font-size="2.5" text-anchor="middle" dominant-baseline="middle">1</text>
  <circle cx="172" cy="92" r="1.5" fill="black" />
  <text x="175" y="92" font-family="sans-serif" font-size="2.5" text-anchor="middle" dominant-baseline="middle">2</text>
  <text x="182" y="92" font-family="sans-serif" font-size="3" text-anchor="middle" dominant-baseline="middle">RPWR</text>
  <rect x="352" y="60.333" width="20" height="10" fill="#f0b4b4" stroke="black" stroke-width="1" />
  <circle cx="352" cy="65.333" r="1.5" fill="black" />
  <text x="355" y="65.333" font-family="sans-serif" font-size="2.5" text-anchor="middle" dominant-baseline="middle">1</text>
  <circle cx="372" cy="65.333" r="1.5" fill="black" />
  <text x="369" y="65.333" font-family="sans-serif" font-size="2.5" text-anchor="middle" dominant-baseline="middle">2</text>
  <text x="362" y="65.333" font-family="sans-serif" font-size="3" text-anchor="middle" dominant-baseline="middle">RSDA</text>
  <rect x="352" y="113.667" width="20" height="10" fill="#f0b4b4" stroke="black" stroke-width="1" />
  <circle cx="352" cy="118.667" r="1.5" fill="black" />
  <text x="355" y="118.667" font-family="sans-serif" font-size="2.5" text-anchor="middle" dominant-baseline="middle">1</text>
  <circle cx="372" cy="118.667" r="1.5" fill="black" />
  <text x="369" y="118.667" font-family="sans-serif" font-size="2.5" text-anchor="middle" dominant-baseline="middle">2</text>
  <text x="362" y="118.667" font-family="sans-serif" font-size="3" text-anchor="middle" dominant-baseline="middle">RSCL</text>
  <rect x="267" y="212" width="10" height="20" fill="#b4c8f0" stroke="black" stroke-width="1" />
  <circle cx="272" cy="212" r="1.5" fill="black" />
  <text x="272" y="215" font-family="sans-serif" font-size="2.5" text-anchor="middle" dominant-baseline="middle">1</text>
  <circle cx="272" cy="232" r="1.5" fill="black" />
  <text x="272" y="229" font-family="sans-serif" font-size="2.5" text-anchor="middle" dominant-baseline="middle">2</text>
  <text x="272" y="222" font-family="sans-serif" font-size="3" text-anchor="middle" dominant-baseline="middle">C1</text>
  <rect x="452" y="12" width="80" height="160" fill="#f5e6a8" stroke="black" stroke-width="1" />
  <circle cx="452" cy="65.333" r="1.5" fill="black" />
  <text x="455" y="65.333" font-family="sans-serif" font-size="2.5" text-anchor="middle" dominant-baseline="middle">1</text>
  <circle cx="452" cy="118.667" r="1.5" fill="black" />
  <text x="455" y="118.667" font-family="sans-serif" font-size="2.5" text-anchor="middle" dominant-baseline="middle">2</text>
  <circle cx="532" cy="92" r="1.5" fill="black" />
  <text x="529" y="92" font-family="sans-serif" font-size="2.5" text-anchor="middle" dominant-baseline="middle">3</text>
  <circle cx="492" cy="172" r="1.5" fill="black" />
  <text x="492" y="169" font-family="sans-serif" font-size="2.5" text-anchor="middle" dominant-baseline="middle">4</text>
  <text x="492" y="92" font-family="sans-serif" font-size="3" text-anchor="middle" dominant-baseline="middle">U2</text>
  <rect x="487" y="212" width="10" height="20" fill="#b4c8f0" stroke="black" stroke-width="1" />
  <circle cx="492" cy="212" r="1.5" fill="black" />
  <text x="492" y="215" font-family="sans-serif" font-size="2.5" text-anchor="middle" dominant-baseline="middle">1</text>
  <circle cx="492" cy="232" r="1.5" fill="black" />
  <text x="492" y="229" font-family="sans-serif" font-size="2.5" text-anchor="middle" dominant-baseline="middle">2</text>
  <text x="492" y="222" font-family="sans-serif" font-size="3" text-anchor="middle" dominant-baseline="middle">C2</text>
  <rect x="12" y="12" width="80" height="160" fill="#f5e6a8" stroke="black" stroke-width="1" />
  <circle cx="12" cy="92" r="1.5" fill="black" />
  <text x="15" y="92" font-family="sans-serif" font-size="2.5" text-anchor="middle" dominant-baseline="middle">2</text>
  <circle cx="92" cy="92" r="1.5" fill="black" />
  <text x="89" y="92" font-family="sans-serif" font-size="2.5" text-anchor="middle" dominant-baseline="middle">1</text>
  <circle cx="52" cy="172" r="1.5" fill="black" />
  <text x="52" y="169" font-family="sans-serif" font-size="2.5" text-anchor="middle" dominant-baseline="middle">3</text>
  <text x="52" y="92" font-family="sans-serif" font-size="3" text-anchor="middle" dominant-baseline="middle">U3</text>
  <rect x="47" y="212" width="10" height="20" fill="#b4c8f0" stroke="black" stroke-width="1" />
  <circle cx="52" cy="212" r="1.5" fill="black" />
  <text x="52" y="215" font-family="sans-serif" font-size="2.5" text-anchor="middle" dominant-baseline="middle">1</text>
  <circle cx="52" cy="232" r="1.5" fill="black" />
  <text x="52" y="229" font-family="sans-serif" font-size="2.5" text-anchor="middle" dominant-baseline="middle">2</text>
  <text x="52" y="222" font-family="sans-serif" font-size="3" text-anchor="middle" dominant-baseline="middle">C3</text>
</svg>
