<svg xmlns="http://www.w3.org/2000/svg" width="494" height="304" viewBox="0 0 494 304">
  <line x1="287" y1="142" x2="242" y2="125.333" stroke="black" stroke-opacity="0.25" stroke-width="1" />
  <line x1="287" y1="162" x2="242" y2="178.667" stroke="black" stroke-opacity="0.25" stroke-width="1" />
  <line x1="215.333" y1="27" x2="215.333" y2="72" stroke="black" stroke-opacity="0.25" stroke-width="1" />
  <line x1="235.333" y1="27" x2="215.333" y2="232" stroke="black" stroke-opacity="0.25" stroke-width="1" />
  <line x1="117" y1="142" x2="162" y2="125.333" stroke="black" stroke-opacity="0.25" stroke-width="1" />
  <line x1="117" y1="162" x2="162" y2="178.667" stroke="black" stroke-opacity="0.25" stroke-width="1" />
  <line x1="317" y1="142" x2="242" y2="125.333" stroke="black" stroke-opacity="0.25" stroke-width="1" />
  <line x1="317" y1="162" x2="242" y2="178.667" stroke="black" stroke-opacity="0.25" stroke-width="1" />
  <line x1="92" y1="125.333" x2="162" y2="125.333" stroke="black" stroke-opacity="0.25" stroke-width="1" />
  <line x1="342" y1="125.333" x2="242" y2="125.333" stroke="black" stroke-opacity="0.25" stroke-width="1" />
  <line x1="382" y1="125.333" x2="242" y2="125.333" stroke="black" stroke-opacity="0.25" stroke-width="1" />
  <line x1="188.667" y1="32" x2="188.667" y2="72" stroke="black" stroke-opacity="0.25" stroke-width="1" />
  <line x1="188.667" y1="272" x2="188.667" y2="232" stroke="black" stroke-opacity="0.25" stroke-width="1" />
  <line x1="12" y1="125.333" x2="162" y2="178.667" stroke="black" stroke-opacity="0.25" stroke-width="1" />
  <line x1="32" y1="125.333" x2="72" y2="125.333" stroke="black" stroke-opacity="0.25" stroke-width="1" />
  <line x1="422" y1="125.333" x2="32" y2="125.333" stroke="black" stroke-opacity="0.25" stroke-width="1" />
  <line x1="462" y1="125.333" x2="362" y2="125.333" stroke="black" stroke-opacity="0.25" stroke-width="1" />
  <line x1="482" y1="125.333" x2="188.667" y2="12" stroke="black" stroke-opacity="0.25" stroke-width="1" />
  <rect x="162" y="72" width="80" height="160" fill="#f5e6a8" stroke="black" stroke-width="1" />
  <circle cx="188.667" cy="72" r="1.5" fill="black" />
  <text x="188.667" y="75" font-family="sans-serif" font-size="2.5" text-anchor="middle" dominant-baseline="middle">1</text>
  <circle cx="215.333" cy="72" r="1.5" fill="black" />
  <text x="215.333" y="75" font-family="sans-serif" font-size="2.5" text-anchor="middle" dominant-baseline="middle">2</text>
  <circle cx="162" cy="125.333" r="1.5" fill="black" />
  <text x="165" y="125.333" font-family="sans-serif" font-size="2.5" text-anchor="middle" dominant-baseline="middle">3</text>
  <circle cx="162" cy="178.667" r="1.5" fill="black" />
  <text x="165" y="178.667" font-family="sans-serif" font-size="2.5" text-anchor="middle" dominant-baseline="middle">4</text>
  <circle cx="242" cy="125.333" r="1.5" fill="black" />
  <text x="239" y="125.333" font-family="sans-serif" font-size="2.5" text-anchor="middle" dominant-baseline="middle">5</text>
  <circle cx="242" cy="178.667" r="1.5" fill="black" />
  <text x="239" y="178.667" font-family="sans-serif" font-size="2.5" text-anchor="middle" dominant-baseline="middle">6</text>
  <circle cx="188.667" cy="232" r="1.5" fill="black" />
  <text x="188.667" y="229" font-family="sans-serif" font-size="2.5" text-anchor="middle" dominant-baseline="middle">7</text>
  <circle cx="215.333" cy="232" r="1.5" fill="black" />
  <text x="215.333" y="229" font-family="sans-serif" font-size="2.5" text-anchor="middle" dominant-baseline="middle">8</text>
  <text x="202" y="152" font-family="sans-serif" font-size="3" text-anchor="middle" dominant-baseline="middle">U1</text>
  <rect x="282" y="142" width="10" height="20" fill="#f0b4b4" stroke="black" stroke-width="1" />
  <circle cx="287" cy="142" r="1.5" fill="black" />
  <text x="287" y="145" font-family="sans-serif" font-size="2.5" text-anchor="middle" dominant-baseline="middle">1</text>
  <circle cx="287" cy="162" r="1.5" fill="black" />
  <text x="287" y="159" font-family="sans-serif" font-size="2.5" text-anchor="middle" dominant-baseline="middle">2</text>
  <text x="287" y="152" font-family="sans-serif" font-size="3" text-anchor="middle" dominant-baseline="middle">R4</text>
  <rect x="215.333" y="22" width="20" height="10" fill="#b4c8f0" stroke="black" stroke-width="1" />
  <circle cx="215.333" cy="27" r="1.5" fill="black" />
  <text x="218.333" y="27" font-family="sans-serif" font-size="2.5" text-anchor="middle" dominant-baseline="middle">1</text>
  <circle cx="235.333" cy="27" r="1.5" fill="black" />
  <text x="232.333" y="27" font-family="sans-serif" font-size="2.5" text-anchor="middle" dominant-baseline="middle">2</text>
  <text x="225.333" y="27" font-family="sans-serif" font-size="3" text-anchor="middle" dominant-baseline="middle">C3</text>
  <rect x="112" y="142" width="10" height="20" fill="#b4c8f0" stroke="black" stroke-width="1" />
  <circle cx="117" cy="142" r="1.5" fill="black" />
  <text x="117" y="145" font-family="sans-serif" font-size="2.5" text-anchor="middle" dominant-baseline="middle">1</text>
  <circle cx="117" cy="162" r="1.5" fill="black" />
  <text x="117" y="159" font-family="sans-serif" font-size="2.5" text-anchor="middle" dominant-baseline="middle">2</text>
  <text x="117" y="152" font-family="sans-serif" font-size="3" text-anchor="middle" dominant-baseline="middle">C6</text>
  <rect x="312" y="142" width="10" height="20" fill="#b4c8f0" stroke="black" stroke-width="1" />
  <circle cx="317" cy="142" r="1.5" fill="black" />
  <text x="317" y="145" font-family="sans-serif" font-size="2.5" text-anchor="middle" dominant-baseline="middle">1</text>
  <circle cx="317" cy="162" r="1.5" fill="black" />
  <text x="317" y="159" font-family="sans-serif" font-size="2.5" text-anchor="middle" dominant-baseline="middle">2</text>
  <text x="317" y="152" font-family="sans-serif" font-size="3" text-anchor="middle" dominant-baseline="middle">C7</text>
  <rect x="72" y="120.333" width="20" height="10" fill="#f0b4b4" stroke="black" stroke-width="1" />
  <circle cx="92" cy="125.333" r="1.5" fill="black" />
  <text x="89" y="125.333" font-family="sans-serif" font-size="2.5" text-anchor="middle" dominant-baseline="middle">1</text>
  <circle cx="72" cy="125.333" r="1.5" fill="black" />
  <text x="75" y="125.333" font-family="sans-serif" font-size="2.5" text-anchor="middle" dominant-baseline="middle">2</text>
  <text x="82" y="125.333" font-family="sans-serif" font-size="3" text-anchor="middle" dominant-baseline="middle">R1</text>
  <rect x="342" y="120.333" width="20" height="10" fill="#f0b4b4" stroke="black" stroke-width="1" />
  <circle cx="342" cy="125.333" r="1.5" fill="black" />
  <text x="345" y="125.333" font-family="sans-serif" font-size="2.5" text-anchor="middle" dominant-baseline="middle">1</text>
  <circle cx="362" cy="125.333" r="1.5" fill="black" />
  <text x="359" y="125.333" font-family="sans-serif" font-size="2.5" text-anchor="middle" dominant-baseline="middle">2</text>
  <text x="352" y="125.333" font-family="sans-serif" font-size="3" text-anchor="middle" dominant-baseline="middle">R2</text>
  <rect x="382" y="120.333" width="20" height="10" fill="#f0b4b4" stroke="black" stroke-width="1" />
  <circle cx="382" cy="125.333" r="1.5" fill="black" />
  <text x="385" y="125.333" font-family="sans-serif" font-size="2.5" text-anchor="middle" dominant-baseline="middle">1</text>
  <circle cx="402" cy="125.333" r="1.5" fill="black" />
  <text x="399" y="125.333" font-family="sans-serif" font-size="2.5" text-anchor="middle" dominant-baseline="middle">2</text>
  <text x="392" y="125.333" font-family="sans-serif" font-size="3" text-anchor="middle" dominant-baseline="middle">R3</text>
  <rect x="183.667" y="12" width="10" height="20" fill="#b4c8f0" stroke="black" stroke-width="1" />
  <circle cx="188.667" cy="32" r="1.5" fill="black" />
  <text x="188.667" y="29" font-family="sans-serif" font-size="2.5" text-anchor="middle" dominant-baseline="middle">1</text>
  <circle cx="188.667" cy="12" r="1.5" fill="black" />
  <text x="188.667" y="15" font-family="sans-serif" font-size="2.5" text-anchor="middle" dominant-baseline="middle">2</text>
  <text x="188.667" y="22" font-family="sans-serif" font-size="3" text-anchor="middle" dominant-baseline="middle">C1</text>
  <rect x="183.667" y="272" width="10" height="20" fill="#b4c8f0" stroke="black" stroke-width="1" />
  <circle cx="188.667" cy="272" r="1.5" fill="black" />
  <text x="188.667" y="275" font-family="sans-serif" font-size="2.5" text-anchor="middle" dominant-baseline="middle">1</text>
  <circle cx="188.667" cy="292" r="1.5" fill="black" />
  <text x="188.667" y="289" font-family="sans-serif" font-size="2.5" text-anchor="middle" dominant-baseline="middle">2</text>
  <text x="188.667" y="282" font-family="sans-serif" font-size="3" text-anchor="middle" dominant-baseline="middle">C2</text>
  <rect x="12" y="120.333" width="20" height="10" fill="#f0b4b4" stroke="black" stroke-width="1" />
  <circle cx="32" cy="125.333" r="1.5" fill="black" />
  <text x="29" y="125.333" font-family="sans-serif" font-size="2.5" text-anchor="middle" dominant-baseline="middle">2</text>
  <circle cx="12" cy="125.333" r="1.5" fill="black" />
  <text x="15" y="125.333" font-family="sans-serif" font-size="2.5" text-anchor="middle" dominant-baseline="middle">1</text>
  <text x="22" y="125.333" font-family="sans-serif" font-size="3" text-anchor="middle" dominant-baseline="middle">R5</text>
  <rect x="422" y="120.333" width="20" height="10" fill="#b4c8f0" stroke="black" stroke-width="1" />
  <circle cx="422" cy="125.333" r="1.5" fill="black" />
  <text x="425" y="125.333" font-family="sans-serif" font-size="2.5" text-anchor="middle" dominant-baseline="middle">1</text>
  <circle cx="442" cy="125.333" r="1.5" fill="black" />
  <text x="439" y="125.333" font-family="sans-serif" font-size="2.5" text-anchor="middle" dominant-baseline="middle">2</text>
  <text x="432" y="125.333" font-family="sans-serif" font-size="3" text-anchor="middle" dominant-baseline="middle">C4</text>
  <rect x="462" y="120.333" width="20" height="10" fill="#b4c8f0" stroke="black" stroke-width="1" />
  <circle cx="462" cy="125.333" r="1.5" fill="black" />
  <text x="465" y="125.333" font-family="sans-serif" font-size="2.5" text-anchor="middle" dominant-baseline="middle">1</text>
  <circle cx="482" cy="125.333" r="1.5" fill="black" />
  <text x="479" y="125.333" font-family="sans-serif" font-size="2.5" text-anchor="middle" dominant-baseline="middle">2</text>
  <text x="472" y="125.333" font-family="sans-serif" font-size="3" text-anchor="middle" dominant-baseline="middle">C5</text>
</svg>
