<svg xmlns="http://www.w3.org/2000/svg" width="304" height="304" viewBox="0 0 304 304">
  <line x1="202" y1="142" x2="152" y2="125.333" stroke="black" stroke-opacity="0.25" stroke-width="1" />
  <line x1="202" y1="162" x2="152" y2="178.667" stroke="black" stroke-opacity="0.25" stroke-width="1" />
  <line x1="125.333" y1="22" x2="125.333" y2="72" stroke="black" stroke-opacity="0.25" stroke-width="1" />
  <line x1="145.333" y1="22" x2="125.333" y2="232" stroke="black" stroke-opacity="0.25" stroke-width="1" />
  <line x1="32" y1="125.333" x2="72" y2="125.333" stroke="black" stroke-opacity="0.25" stroke-width="1" />
  <line x1="232" y1="125.333" x2="152" y2="125.333" stroke="black" stroke-opacity="0.25" stroke-width="1" />
  <line x1="272" y1="125.333" x2="152" y2="125.333" stroke="black" stroke-opacity="0.25" stroke-width="1" />
  <line x1="98.667" y1="32" x2="98.667" y2="72" stroke="black" stroke-opacity="0.25" stroke-width="1" />
  <line x1="98.667" y1="272" x2="98.667" y2="232" stroke="black" stroke-opacity="0.25" stroke-width="1" />
  <rect x="72" y="72" width="80" height="160" fill="#f5e6a8" stroke="black" stroke-width="1" />
  <circle cx="98.667" cy="72" r="1.5" fill="black" />
  <text x="98.667" y="75" font-family="sans-serif" font-size="2.5" text-anchor="middle" dominant-baseline="middle">1</text>
  <circle cx="125.333" cy="72" r="1.5" fill="black" />
  <text x="125.333" y="75" font-family="sans-serif" font-size="2.5" text-anchor="middle" dominant-baseline="middle">2</text>
  <circle cx="72" cy="125.333" r="1.5" fill="black" />
  <text x="75" y="125.333" font-family="sans-serif" font-size="2.5" text-anchor="middle" dominant-baseline="middle">3</text>
  <circle cx="72" cy="178.667" r="1.5" fill="black" />
  <text x="75" y="178.667" font-family="sans-serif" font-size="2.5" text-anchor="middle" dominant-baseline="middle">4</text>
  <circle cx="152" cy="125.333" r="1.5" fill="black" />
  <text x="149" y="125.333" font-family="sans-serif" font-size="2.5" text-anchor="middle" dominant-baseline="middle">5</text>
  <circle cx="152" cy="178.667" r="1.5" fill="black" />
  <text x="149" y="178.667" font-family="sans-serif" font-size="2.5" text-anchor="middle" dominant-baseline="middle">6</text>
  <circle cx="98.667" cy="232" r="1.5" fill="black" />
  <text x="98.667" y="229" font-family="sans-serif" font-size="2.5" text-anchor="middle" dominant-baseline="middle">7</text>
  <circle cx="125.333" cy="232" r="1.5" fill="black" />
  <text x="125.333" y="229" font-family="sans-serif" font-size="2.5" text-anchor="middle" dominant-baseline="middle">8</text>
  <text x="112" y="152" font-family="sans-serif" font-size="3" text-anchor="middle" dominant-baseline="middle">U1</text>
  <rect x="197" y="142" width="10" height="20" fill="#f0b4b4" stroke="black" stroke-width="1" />
  <circle cx="202" cy="142" r="1.5" fill="black" />
  <text x="202" y="145" font-family="sans-serif" font-size="2.5" text-anchor="middle" dominant-baseline="middle">1</text>
  <circle cx="202" cy="162" r="1.5" fill="black" />
  <text x="202" y="159" font-family="sans-serif" font-size="2.5" text-anchor="middle" dominant-baseline="middle">2</text>
  <text x="202" y="152" font-family="sans-serif" font-size="3" text-anchor="middle" dominant-baseline="middle">R3</text>
  <rect x="125.333" y="17" width="20" height="10" fill="#b4c8f0" stroke="black" stroke-width="1" />
  <circle cx="125.333" cy="22" r="1.5" fill="black" />
  <text x="128.333" y="22" font-family="sans-serif" font-size="2.5" text-anchor="middle" dominant-baseline="middle">1</text>
  <circle cx="145.333" cy="22" r="1.5" fill="black" />
  <text x="142.333" y="22" font-family="sans-serif" font-size="2.5" text-anchor="middle" dominant-baseline="middle">2</text>
  <text x="135.333" y="22" font-family="sans-serif" font-size="3" text-anchor="middle" dominant-baseline="middle">C3</text>
  <rect x="12" y="120.333" width="20" height="10" fill="#f0b4b4" stroke="black" stroke-width="1" />
  <circle cx="32" cy="125.333" r="1.5" fill="black" />
  <text x="29" y="125.333" font-family="sans-serif" font-size="2.5" text-anchor="middle" dominant-baseline="middle">1</text>
  <circle cx="12" cy="125.333" r="1.5" fill="black" />
  <text x="15" y="125.333" font-family="sans-serif" font-size="2.5" text-anchor="middle" dominant-baseline="middle">2</text>
  <text x="22" y="125.333" font-family="sans-serif" font-size="3" text-anchor="middle" dominant-baseline="middle">R1</text>
  <rect x="232" y="120.333" width="20" height="10" fill="#f0b4b4" stroke="black" stroke-width="1" />
  <circle cx="232" cy="125.333" r="1.5" fill="black" />
  <text x="235" y="125.333" font-family="sans-serif" font-size="2.5" text-anchor="middle" dominant-baseline="middle">1</text>
  <circle cx="252" cy="125.333" r="1.5" fill="black" />
  <text x="249" y="125.333" font-family="sans-serif" font-size="2.5" text-anchor="middle" dominant-baseline="middle">2</text>
  <text x="242" y="125.333" font-family="sans-serif" font-size="3" text-anchor="middle" dominant-baseline="middle">R2</text>
  <rect x="272" y="120.333" width="20" height="10" fill="#f0b4b4" stroke="black" stroke-width="1" />
  <circle cx="272" cy="125.333" r="1.5" fill="black" />
  <text x="275" y="125.333" font-family="sans-serif" font-size="2.5" text-anchor="middle" dominant-baseline="middle">1</text>
  <circle cx="292" cy="125.333" r="1.5" fill="black" />
  <text x="289" y="125.333" font-family="sans-serif" font-size="2.5" text-anchor="middle" dominant-baseline="middle">2</text>
  <text x="282" y="125.333" font-family="sans-serif" font-size="3" text-anchor="middle" dominant-baseline="middle">R4</text>
  <rect x="93.667" y="12" width="10" height="20" fill="#b4c8f0" stroke="black" stroke-width="1" />
  <circle cx="98.667" cy="32" r="1.5" fill="black" />
  <text x="98.667" y="29" font-family="sans-serif" font-size="2.5" text-anchor="middle" dominant-baseline="middle">1</text>
  <circle cx="98.667" cy="12" r="1.5" fill="black" />
  <text x="98.667" y="15" font-family="sans-serif" font-size="2.5" text-anchor="middle" dominant-baseline="middle">2</text>
  <text x="98.667" y="22" font-family="sans-serif" font-size="3" text-anchor="middle" dominant-baseline="middle">C1</text>
  <rect x="93.667" y="272" width="10" height="20" fill="#b4c8f0" stroke="black" stroke-width="1" />
  <circle cx="98.667" cy="272" r="1.5" fill="black" />
  <text x="98.667" y="275" font-family="sans-serif" font-size="2.5" text-anchor="middle" dominant-baseline="middle">2</text>
  <circle cx="98.667" cy="292" r="1.5" fill="black" />
  <text x="98.667" y="289" font-family="sans-serif" font-size="2.5" text-anchor="middle" dominant-baseline="middle">1</text>
  <text x="98.667" y="282" font-family="sans-serif" font-size="3" text-anchor="middle" dominant-baseline="middle">C2</text>
</svg>
