<svg xmlns="http://www.w3.org/2000/svg" width="164" height="244" viewBox="0 0 164 244">
  <line x1="132" y1="32" x2="92" y2="32" stroke="black" stroke-opacity="0.25" stroke-width="1" />
  <line x1="132" y1="52" x2="92" y2="52" stroke="black" stroke-opacity="0.25" stroke-width="1" />
  <line x1="132" y1="112" x2="92" y2="112" stroke="black" stroke-opacity="0.25" stroke-width="1" />
  <rect x="12" y="12" width="80" height="220" fill="#f5e6a8" stroke="black" stroke-width="1" />
  <circle cx="92" cy="32" r="1.5" fill="black" />
  <text x="89" y="32" font-family="sans-serif" font-size="2.5" text-anchor="middle" dominant-baseline="middle">1</text>
  <circle cx="92" cy="52" r="1.5" fill="black" />
  <text x="89" y="52" font-family="sans-serif" font-size="2.5" text-anchor="middle" dominant-baseline="middle">2</text>
  <circle cx="92" cy="72" r="1.5" fill="black" />
  <text x="89" y="72" font-family="sans-serif" font-size="2.5" text-anchor="middle" dominant-baseline="middle">3</text>
  <circle cx="92" cy="92" r="1.5" fill="black" />
  <text x="89" y="92" font-family="sans-serif" font-size="2.5" text-anchor="middle" dominant-baseline="middle">4</text>
  <circle cx="92" cy="112" r="1.5" fill="black" />
  <text x="89" y="112" font-family="sans-serif" font-size="2.5" text-anchor="middle" dominant-baseline="middle">5</text>
  <circle cx="92" cy="132" r="1.5" fill="black" />
  <text x="89" y="132" font-family="sans-serif" font-size="2.5" text-anchor="middle" dominant-baseline="middle">6</text>
  <circle cx="92" cy="152" r="1.5" fill="black" />
  <text x="89" y="152" font-family="sans-serif" font-size="2.5" text-anchor="middle" dominant-baseline="middle">7</text>
  <circle cx="92" cy="172" r="1.5" fill="black" />
  <text x="89" y="172" font-family="sans-serif" font-size="2.5" text-anchor="middle" dominant-baseline="middle">8</text>
  <circle cx="92" cy="192" r="1.5" fill="black" />
  <text x="89" y="192" font-family="sans-serif" font-size="2.5" text-anchor="middle" dominant-baseline="middle">9</text>
  <circle cx="92" cy="212" r="1.5" fill="black" />
  <text x="89" y="212" font-family="sans-serif" font-size="2.5" text-anchor="middle" dominant-baseline="middle">10</text>
  <text x="52" y="122" font-family="sans-serif" font-size="3" text-anchor="middle" dominant-baseline="middle">U1</text>
  <rect x="132" y="27" width="20" height="10" fill="#f0b4b4" stroke="black" stroke-width="1" />
  <circle cx="132" cy="32" r="1.5" fill="black" />
  <text x="135" y="32" font-family="sans-serif" font-size="2.5" text-anchor="middle" dominant-baseline="middle">1</text>
  <circle cx="152" cy="32" r="1.5" fill="black" />
  <text x="149" y="32" font-family="sans-serif" font-size="2.5" text-anchor="middle" dominant-baseline="middle">2</text>
  <text x="142" y="32" font-family="sans-serif" font-size="3" text-anchor="middle" dominant-baseline="middle">R1</text>
  <rect x="132" y="47" width="20" height="10" fill="#f0b4b4" stroke="black" stroke-width="1" />
  <circle cx="132" cy="52" r="1.5" fill="black" />
  <text x="135" y="52" font-family="sans-serif" font-size="2.5" text-anchor="middle" dominant-baseline="middle">1</text>
  <circle cx="152" cy="52" r="1.5" fill="black" />
  <text x="149" y="52" font-family="sans-serif" font-size="2.5" text-anchor="middle" dominant-baseline="middle">2</text>
  <text x="142" y="52" font-family="sans-serif" font-size="3" text-anchor="middle" dominant-baseline="middle">R2</text>
  <rect x="132" y="107" width="20" height="10" fill="#b4c8f0" stroke="black" stroke-width="1" />
  <circle cx="132" cy="112" r="1.5" fill="black" />
  <text x="135" y="112" font-family="sans-serif" font-size="2.5" text-anchor="middle" dominant-baseline="middle">1</text>
  <circle cx="152" cy="112" r="1.5" fill="black" />
  <text x="149" y="112" font-family="sans-serif" font-size="2.5" text-anchor="middle" dominant-baseline="middle">2</text>
  <text x="142" y="112" font-family="sans-serif" font-size="3" text-anchor="middle" dominant-baseline="middle">C1</text>
</svg>
