<svg xmlns="http://www.w3.org/2000/svg" width="224" height="244" viewBox="0 0 224 244">
  <line x1="132" y1="152" x2="92" y2="152" stroke="black" stroke-opacity="0.25" stroke-width="1" />
  <line x1="52" y1="32" x2="52" y2="72" stroke="black" stroke-opacity="0.25" stroke-width="1" />
  <line x1="192" y1="152" x2="152" y2="152" stroke="black" stroke-opacity="0.25" stroke-width="1" />
  <rect x="12" y="72" width="80" height="160" fill="#f5e6a8" stroke="black" stroke-width="1" />
  <circle cx="52" cy="72" r="1.5" fill="black" />
  <text x="52" y="75" font-family="sans-serif" font-size="2.5" text-anchor="middle" dominant-baseline="middle">2</text>
  <circle cx="92" cy="152" r="1.5" fill="black" />
  <text x="89" y="152" font-family="sans-serif" font-size="2.5" text-anchor="middle" dominant-baseline="middle">1</text>
  <text x="52" y="152" font-family="sans-serif" font-size="3" text-anchor="middle" dominant-baseline="middle">U1</text>
  <rect x="132" y="147" width="20" height="10" fill="#f0b4b4" stroke="black" stroke-width="1" />
  <circle cx="132" cy="152" r="1.5" fill="black" />
  <text x="135" y="152" font-family="sans-serif" font-size="2.5" text-anchor="middle" dominant-baseline="middle">1</text>
  <circle cx="152" cy="152" r="1.5" fill="black" />
  <text x="149" y="152" font-family="sans-serif" font-size="2.5" text-anchor="middle" dominant-baseline="middle">2</text>
  <text x="142" y="152" font-family="sans-serif" font-size="3" text-anchor="middle" dominant-baseline="middle">R1</text>
  <rect x="47" y="12" width="10" height="20" fill="#f0b4b4" stroke="black" stroke-width="1" />
  <circle cx="52" cy="32" r="1.5" fill="black" />
  <text x="52" y="29" font-family="sans-serif" font-size="2.5" text-anchor="middle" dominant-baseline="middle">1</text>
  <circle cx="52" cy="12" r="1.5" fill="black" />
  <text x="52" y="15" font-family="sans-serif" font-size="2.5" text-anchor="middle" dominant-baseline="middle">2</text>
  <text x="52" y="22" font-family="sans-serif" font-size="3" text-anchor="middle" dominant-baseline="middle">R2</text>
  <rect x="192" y="147" width="20" height="10" fill="#b4c8f0" stroke="black" stroke-width="1" />
  <circle cx="192" cy="152" r="1.5" fill="black" />
  <text x="195" y="152" font-family="sans-serif" font-size="2.5" text-anchor="middle" dominant-baseline="middle">1</text>
  <circle cx="212" cy="152" r="1.5" fill="black" />
  <text x="209" y="152" font-family="sans-serif" font-size="2.5" text-anchor="middle" dominant-baseline="middle">2</text>
  <text x="202" y="152" font-family="sans-serif" font-size="3" text-anchor="middle" dominant-baseline="middle">C1</text>
</svg>
