<svg xmlns="http://www.w3.org/2000/svg" width="714" height="244" viewBox="0 0 714 244">
  <line x1="197" y1="142" x2="152" y2="125.333" stroke="black" stroke-opacity="0.25" stroke-width="1" />
  <line x1="197" y1="162" x2="152" y2="178.667" stroke="black" stroke-opacity="0.25" stroke-width="1" />
  <line x1="32" y1="152" x2="72" y2="152" stroke="black" stroke-opacity="0.25" stroke-width="1" />
  <line x1="112" y1="32" x2="112" y2="72" stroke="black" stroke-opacity="0.25" stroke-width="1" />
  <line x1="402" y1="95.333" x2="362" y2="95.333" stroke="black" stroke-opacity="0.25" stroke-width="1" />
  <line x1="462" y1="95.333" x2="422" y2="95.333" stroke="black" stroke-opacity="0.25" stroke-width="1" />
  <line x1="682" y1="92" x2="642" y2="92" stroke="black" stroke-opacity="0.25" stroke-width="1" />
  <line x1="602" y1="212" x2="602" y2="172" stroke="black" stroke-opacity="0.25" stroke-width="1" />
  <rect x="72" y="72" width="80" height="160" fill="#f5e6a8" stroke="black" stroke-width="1" />
  <circle cx="112" cy="72" r="1.5" fill="black" />
  <text x="112" y="75" font-family="sans-serif" font-size="2.5" text-anchor="middle" dominant-baseline="middle">4</text>
  <circle cx="72" cy="152" r="1.5" fill="black" />
  <text x="75" y="152" font-family="sans-serif" font-size="2.5" text-anchor="middle" dominant-baseline="middle">1</text>
  <circle cx="152" cy="125.333" r="1.5" fill="black" />
  <text x="149" y="125.333" font-family="sans-serif" font-size="2.5" text-anchor="middle" dominant-baseline="middle">2</text>
  <circle cx="152" cy="178.667" r="1.5" fill="black" />
  <text x="149" y="178.667" font-family="sans-serif" font-size="2.5" text-anchor="middle" dominant-baseline="middle">3</text>
  <text x="112" y="152" font-family="sans-serif" font-size="3" text-anchor="middle" dominant-baseline="middle">U1</text>
  <rect x="192" y="142" width="10" height="20" fill="#f0b4b4" stroke="black" stroke-width="1" />
  <circle cx="197" cy="142" r="1.5" fill="black" />
  <text x="197" y="145" font-family="sans-serif" font-size="2.5" text-anchor="middle" dominant-baseline="middle">1</text>
  <circle cx="197" cy="162" r="1.5" fill="black" />
  <text x="197" y="159" font-family="sans-serif" font-size="2.5" text-anchor="middle" dominant-baseline="middle">2</text>
  <text x="197" y="152" font-family="sans-serif" font-size="3" text-anchor="middle" dominant-baseline="middle">R2</text>
  <rect x="12" y="147" width="20" height="10" fill="#f0b4b4" stroke="black" stroke-width="1" />
  <circle cx="32" cy="152" r="1.5" fill="black" />
  <text x="29" y="152" font-family="sans-serif" font-size="2.5" text-anchor="middle" dominant-baseline="middle">1</text>
  <circle cx="12" cy="152" r="1.5" fill="black" />
  <text x="15" y="152" font-family="sans-serif" font-size="2.5" text-anchor="middle" dominant-baseline="middle">2</text>
  <text x="22" y="152" font-family="sans-serif" font-size="3" text-anchor="middle" dominant-baseline="middle">R1</text>
  <rect x="107" y="12" width="10" height="20" fill="#b4c8f0" stroke="black" stroke-width="1" />
  <circle cx="112" cy="32" r="1.5" fill="black" />
  <text x="112" y="29" font-family="sans-serif" font-size="2.5" text-anchor="middle" dominant-baseline="middle">1</text>
  <circle cx="112" cy="12" r="1.5" fill="black" />
  <text x="112" y="15" font-family="sans-serif" font-size="2.5" text-anchor="middle" dominant-baseline="middle">2</text>
  <text x="112" y="22" font-family="sans-serif" font-size="3" text-anchor="middle" dominant-baseline="middle">C1</text>
  <rect x="282" y="42" width="80" height="160" fill="#f5e6a8" stroke="black" stroke-width="1" />
  <circle cx="362" cy="95.333" r="1.5" fill="black" />
  <text x="359" y="95.333" font-family="sans-serif" font-size="2.5" text-anchor="middle" dominant-baseline="middle">1</text>
  <circle cx="362" cy="148.667" r="1.5" fill="black" />
  <text x="359" y="148.667" font-family="sans-serif" font-size="2.5" text-anchor="middle" dominant-baseline="middle">2</text>
  <text x="322" y="122" font-family="sans-serif" font-size="3" text-anchor="middle" dominant-baseline="middle">U2</text>
  <rect x="402" y="90.333" width="20" height="10" fill="#f0b4b4" stroke="black" stroke-width="1" />
  <circle cx="402" cy="95.333" r="1.5" fill="black" />
  <text x="405" y="95.333" font-family="sans-serif" font-size="2.5" text-anchor="middle" dominant-baseline="middle">1</text>
  <circle cx="422" cy="95.333" r="1.5" fill="black" />
  <text x="419" y="95.333" font-family="sans-serif" font-size="2.5" text-anchor="middle" dominant-baseline="middle">2</text>
  <text x="412" y="95.333" font-family="sans-serif" font-size="3" text-anchor="middle" dominant-baseline="middle">R3</text>
  <rect x="462" y="90.333" width="20" height="10" fill="#b4c8f0" stroke="black" stroke-width="1" />
  <circle cx="462" cy="95.333" r="1.5" fill="black" />
  <text x="465" y="95.333" font-family="sans-serif" font-size="2.5" text-anchor="middle" dominant-baseline="middle">1</text>
  <circle cx="482" cy="95.333" r="1.5" fill="black" />
  <text x="479" y="95.333" font-family="sans-serif" font-size="2.5" text-anchor="middle" dominant-baseline="middle">2</text>
  <text x="472" y="95.333" font-family="sans-serif" font-size="3" text-anchor="middle" dominant-baseline="middle">C2</text>
  <rect x="562" y="12" width="80" height="160" fill="#f5e6a8" stroke="black" stroke-width="1" />
  <circle cx="642" cy="92" r="1.5" fill="black" />
  <text x="639" y="92" font-family="sans-serif" font-size="2.5" text-anchor="middle" dominant-baseline="middle">1</text>
  <circle cx="602" cy="172" r="1.5" fill="black" />
  <text x="602" y="169" font-family="sans-serif" font-size="2.5" text-anchor="middle" dominant-baseline="middle">2</text>
  <text x="602" y="92" font-family="sans-serif" font-size="3" text-anchor="middle" dominant-baseline="middle">U3</text>
  <rect x="682" y="87" width="20" height="10" fill="#b4c8f0" stroke="black" stroke-width="1" />
  <circle cx="682" cy="92" r="1.5" fill="black" />
  <text x="685" y="92" font-family="sans-serif" font-size="2.5" text-anchor="middle" dominant-baseline="middle">1</text>
  <circle cx="702" cy="92" r="1.5" fill="black" />
  <text x="699" y="92" font-family="sans-serif" font-size="2.5" text-anchor="middle" dominant-baseline="middle">2</text>
  <text x="692" y="92" font-family="sans-serif" font-size="3" text-anchor="middle" dominant-baseline="middle">C3</text>
  <rect x="597" y="212" width="10" height="20" fill="#b4c8f0" stroke="black" stroke-width="1" />
  <circle cx="602" cy="212" r="1.5" fill="black" />
  <text x="602" y="215" font-family="sans-serif" font-size="2.5" text-anchor="middle" dominant-baseline="middle">1</text>
  <circle cx="602" cy="232" r="1.5" fill="black" />
  <text x="602" y="229" font-family="sans-serif" font-size="2.5" text-anchor="middle" dominant-baseline="middle">2</text>
  <text x="602" y="222" font-family="sans-serif" font-size="3" text-anchor="middle" dominant-baseline="middle">C4</text>
</svg>
