<svg xmlns="http://www.w3.org/2000/svg" width="284" height="304" viewBox="0 0 284 304">
  <line x1="32" y1="125.333" x2="72" y2="125.333" stroke="black" stroke-opacity="0.25" stroke-width="1" />
  <line x1="32" y1="178.667" x2="72" y2="178.667" stroke="black" stroke-opacity="0.25" stroke-width="1" />
  <line x1="192" y1="152" x2="152" y2="152" stroke="black" stroke-opacity="0.25" stroke-width="1" />
  <line x1="112" y1="32" x2="112" y2="72" stroke="black" stroke-opacity="0.25" stroke-width="1" />
  <line x1="112" y1="272" x2="112" y2="232" stroke="black" stroke-opacity="0.25" stroke-width="1" />
  <line x1="252" y1="152" x2="212" y2="152" stroke="black" stroke-opacity="0.25" stroke-width="1" />
  <rect x="72" y="72" width="80" height="160" fill="#f5e6a8" stroke="black" stroke-width="1" />
  <circle cx="112" cy="72" r="1.5" fill="black" />
  <text x="112" y="75" font-family="sans-serif" font-size="2.5" text-anchor="middle" dominant-baseline="middle">1</text>
  <circle cx="72" cy="125.333" r="1.5" fill="black" />
  <text x="75" y="125.333" font-family="sans-serif" font-size="2.5" text-anchor="middle" dominant-baseline="middle">2</text>
  <circle cx="72" cy="178.667" r="1.5" fill="black" />
  <text x="75" y="178.667" font-family="sans-serif" font-size="2.5" text-anchor="middle" dominant-baseline="middle">3</text>
  <circle cx="152" cy="152" r="1.5" fill="black" />
  <text x="149" y="152" font-family="sans-serif" font-size="2.5" text-anchor="middle" dominant-baseline="middle">4</text>
  <circle cx="112" cy="232" r="1.5" fill="black" />
  <text x="112" y="229" font-family="sans-serif" font-size="2.5" text-anchor="middle" dominant-baseline="middle">5</text>
  <text x="112" y="152" font-family="sans-serif" font-size="3" text-anchor="middle" dominant-baseline="middle">U1</text>
  <rect x="12" y="120.333" width="20" height="10" fill="#f0b4b4" stroke="black" stroke-width="1" />
  <circle cx="32" cy="125.333" r="1.5" fill="black" />
  <text x="29" y="125.333" font-family="sans-serif" font-size="2.5" text-anchor="middle" dominant-baseline="middle">1</text>
  <circle cx="12" cy="125.333" r="1.5" fill="black" />
  <text x="15" y="125.333" font-family="sans-serif" font-size="2.5" text-anchor="middle" dominant-baseline="middle">2</text>
  <text x="22" y="125.333" font-family="sans-serif" font-size="3" text-anchor="middle" dominant-baseline="middle">R1</text>
  <rect x="12" y="173.667" width="20" height="10" fill="#f0b4b4" stroke="black" stroke-width="1" />
  <circle cx="32" cy="178.667" r="1.5" fill="black" />
  <text x="29" y="178.667" font-family="sans-serif" font-size="2.5" text-anchor="middle" dominant-baseline="middle">1</text>
  <circle cx="12" cy="178.667" r="1.5" fill="black" />
  <text x="15" y="178.667" font-family="sans-serif" font-size="2.5" text-anchor="middle" dominant-baseline="middle">2</text>
  <text x="22" y="178.667" font-family="sans-serif" font-size="3" text-anchor="middle" dominant-baseline="middle">R2</text>
  <rect x="192" y="147" width="20" height="10" fill="#f0b4b4" stroke="black" stroke-width="1" />
  <circle cx="192" cy="152" r="1.5" fill="black" />
  <text x="195" y="152" font-family="sans-serif" font-size="2.5" text-anchor="middle" dominant-baseline="middle">1</text>
  <circle cx="212" cy="152" r="1.5" fill="black" />
  <text x="209" y="152" font-family="sans-serif" font-size="2.5" text-anchor="middle" dominant-baseline="middle">2</text>
  <text x="202" y="152" font-family="sans-serif" font-size="3" text-anchor="middle" dominant-baseline="middle">R5</text>
  <rect x="107" y="12" width="10" height="20" fill="#b4c8f0" stroke="black" stroke-width="1" />
  <circle cx="112" cy="32" r="1.5" fill="black" />
  <text x="112" y="29" font-family="sans-serif" font-size="2.5" text-anchor="middle" dominant-baseline="middle">1</text>
  <circle cx="112" cy="12" r="1.5" fill="black" />
  <text x="112" y="15" font-family="sans-serif" font-size="2.5" text-anchor="middle" dominant-baseline="middle">2</text>
  <text x="112" y="22" font-family="sans-serif" font-size="3" text-anchor="middle" dominant-baseline="middle">C1</text>
  <rect x="107" y="272" width="10" height="20" fill="#b4c8f0" stroke="black" stroke-width="1" />
  <circle cx="112" cy="272" r="1.5" fill="black" />
  <text x="112" y="275" font-family="sans-serif" font-size="2.5" text-anchor="middle" dominant-baseline="middle">1</text>
  <circle cx="112" cy="292" r="1.5" fill="black" />
  <text x="112" y="289" font-family="sans-serif" font-size="2.5" text-anchor="middle" dominant-baseline="middle">2</text>
  <text x="112" y="282" font-family="sans-serif" font-size="3" text-anchor="middle" dominant-baseline="middle">C2</text>
  <rect x="252" y="147" width="20" height="10" fill="#b4c8f0" stroke="black" stroke-width="1" />
  <circle cx="252" cy="152" r="1.5" fill="black" />
  <text x="255" y="152" font-family="sans-serif" font-size="2.5" text-anchor="middle" dominant-baseline="middle">1</text>
  <circle cx="272" cy="152" r="1.5" fill="black" />
  <text x="269" y="152" font-family="sans-serif" font-size="2.5" text-anchor="middle" dominant-baseline="middle">2</text>
  <text x="262" y="152" font-family="sans-serif" font-size="3" text-anchor="middle" dominant-baseline="middle">C3</text>
</svg>
