<svg xmlns="http://www.w3.org/2000/svg" width="604" height="244" viewBox="0 0 604 244">
  <line x1="252" y1="92" x2="292" y2="92" stroke="black" stroke-opacity="0.25" stroke-width="1" />
  <line x1="412" y1="65.333" x2="372" y2="65.333" stroke="black" stroke-opacity="0.25" stroke-width="1" />
  <line x1="412" y1="118.667" x2="372" y2="118.667" stroke="black" stroke-opacity="0.25" stroke-width="1" />
  <line x1="332" y1="212" x2="332" y2="172" stroke="black" stroke-opacity="0.25" stroke-width="1" />
  <line x1="552" y1="212" x2="552" y2="172" stroke="black" stroke-opacity="0.25" stroke-width="1" />
  <line x1="112" y1="212" x2="112" y2="172" stroke="black" stroke-opacity="0.25" stroke-width="1" />
  <line x1="32" y1="92" x2="72" y2="92" stroke="black" stroke-opacity="0.25" stroke-width="1" />
  <line x1="232" y1="92" x2="152" y2="92" stroke="black" stroke-opacity="0.25" stroke-width="1" />
  <line x1="432" y1="65.333" x2="512" y2="65.333" stroke="black" stroke-opacity="0.25" stroke-width="1" />
  <line x1="432" y1="118.667" x2="512" y2="118.667" stroke="black" stroke-opacity="0.25" stroke-width="1" />
  <rect x="292" y="12" width="80" height="160" fill="#f5e6a8" stroke="black" stroke-width="1" />
  <circle cx="292" cy="92" r="1.5" fill="black" />
  <text x="295" y="92" font-family="sans-serif" font-size="2.5" text-anchor="middle" dominant-baseline="middle">1</text>
  <circle cx="372" cy="65.333" r="1.5" fill="black" />
  <text x="369" y="65.333" font-family="sans-serif" font-size="2.5" text-anchor="middle" dominant-baseline="middle">2</text>
  <circle cx="372" cy="118.667" r="1.5" fill="black" />
  <text x="369" y="118.667" font-family="sans-serif" font-size="2.5" text-anchor="middle" dominant-baseline="middle">3</text>
  <circle cx="332" cy="172" r="1.5" fill="black" />
  <text x="332" y="169" font-family="sans-serif" font-size="2.5" text-anchor="middle" dominant-baseline="middle">4</text>
  <text x="332" y="92" font-family="sans-serif" font-size="3" text-anchor="middle" dominant-baseline="middle">U1</text>
  <rect x="232" y="87" width="20" height="10" fill="#f0b4b4" stroke="black" stroke-width="1" />
  <circle cx="252" cy="92" r="1.5" fill="black" />
  <text x="249" y="92" font-family="sans-serif" font-size="2.5" text-anchor="middle" dominant-baseline="middle">1</text>
  <circle cx="232" cy="92" r="1.5" fill="black" />
  <text x="235" y="92" font-family="sans-serif" font-size="2.5" text-anchor="middle" dominant-baseline="middle">2</text>
  <text x="242" y="92" font-family="sans-serif" font-size="3" text-anchor="middle" dominant-baseline="middle">RPWR</text>
  <rect x="412" y="60.333" width="20" height="10" fill="#f0b4b4" stroke="black" stroke-width="1" />
  <circle cx="412" cy="65.333" r="1.5" fill="black" />
  <text x="415" y="65.333" font-family="sans-serif" font-size="2.5" text-anchor="middle" dominant-baseline="middle">1</text>
  <circle cx="432" cy="65.333" r="1.5" fill="black" />
  <text x="429" y="65.333" font-family="sans-serif" font-size="2.5" text-anchor="middle" dominant-baseline="middle">2</text>
  <text x="422" y="65.333" font-family="sans-serif" font-size="3" text-anchor="middle" dominant-baseline="middle">RSDA</text>
  <rect x="412" y="113.667" width="20" height="10" fill="#f0b4b4" stroke="black" stroke-width="1" />
  <circle cx="412" cy="118.667" r="1.5" fill="black" />
  <text x="415" y="118.667" font-family="sans-serif" font-size="2.5" text-anchor="middle" dominant-baseline="middle">1</text>
  <circle cx="432" cy="118.667" r="1.5" fill="black" />
  <text x="429" y="118.667" font-family="sans-serif" font-size="2.5" text-anchor="middle" dominant-baseline="middle">2</text>
  <text x="422" y="118.667" font-family="sans-serif" font-size="3" text-anchor="middle" dominant-baseline="middle">RSCL</text>
  <rect x="327" y="212" width="10" height="20" fill="#b4c8f0" stroke="black" stroke-width="1" />
  <circle cx="332" cy="212" r="1.5" fill="black" />
  <text x="332" y="215" font-family="sans-serif" font-size="2.5" text-anchor="middle" dominant-baseline="middle">1</text>
  <circle cx="332" cy="232" r="1.5" fill="black" />
  <text x="332" y="229" font-family="sans-serif" font-size="2.5" text-anchor="middle" dominant-baseline="middle">2</text>
  <text x="332" y="222" font-family="sans-serif" font-size="3" text-anchor="middle" dominant-baseline="middle">C1</text>
  <rect x="512" y="12" width="80" height="160" fill="#f5e6a8" stroke="black" stroke-width="1" />
  <circle cx="512" cy="65.333" r="1.5" fill="black" />
  <text x="515" y="65.333" font-family="sans-serif" font-size="2.5" text-anchor="middle" dominant-baseline="middle">1</text>
  <circle cx="512" cy="118.667" r="1.5" fill="black" />
  <text x="515" y="118.667" font-family="sans-serif" font-size="2.5" text-anchor="middle" dominant-baseline="middle">2</text>
  <circle cx="592" cy="92" r="1.5" fill="black" />
  <text x="589" y="92" font-family="sans-serif" font-size="2.5" text-anchor="middle" dominant-baseline="middle">3</text>
  <circle cx="552" cy="172" r="1.5" fill="black" />
  <text x="552" y="169" font-family="sans-serif" font-size="2.5" text-anchor="middle" dominant-baseline="middle">4</text>
  <text x="552" y="92" font-family="sans-serif" font-size="3" text-anchor="middle" dominant-baseline="middle">U2</text>
  <rect x="547" y="212" width="10" height="20" fill="#b4c8f0" stroke="black" stroke-width="1" />
  <circle cx="552" cy="212" r="1.5" fill="black" />
  <text x="552" y="215" font-family="sans-serif" font-size="2.5" text-anchor="middle" dominant-baseline="middle">1</text>
  <circle cx="552" cy="232" r="1.5" fill="black" />
  <text x="552" y="229" font-family="sans-serif" font-size="2.5" text-anchor="middle" dominant-baseline="middle">2</text>
  <text x="552" y="222" font-family="sans-serif" font-size="3" text-anchor="middle" dominant-baseline="middle">C2</text>
  <rect x="72" y="12" width="80" height="160" fill="#f5e6a8" stroke="black" stroke-width="1" />
  <circle cx="72" cy="92" r="1.5" fill="black" />
  <text x="75" y="92" font-family="sans-serif" font-size="2.5" text-anchor="middle" dominant-baseline="middle">2</text>
  <circle cx="152" cy="92" r="1.5" fill="black" />
  <text x="149" y="92" font-family="sans-serif" font-size="2.5" text-anchor="middle" dominant-baseline="middle">1</text>
  <circle cx="112" cy="172" r="1.5" fill="black" />
  <text x="112" y="169" font-family="sans-serif" font-size="2.5" text-anchor="middle" dominant-baseline="middle">3</text>
  <text x="112" y="92" font-family="sans-serif" font-size="3" text-anchor="middle" dominant-baseline="middle">U3</text>
  <rect x="107" y="212" width="10" height="20" fill="#b4c8f0" stroke="black" stroke-width="1" />
  <circle cx="112" cy="212" r="1.5" fill="black" />
  <text x="112" y="215" font-family="sans-serif" font-size="2.5" text-anchor="middle" dominant-baseline="middle">1</text>
  <circle cx="112" cy="232" r="1.5" fill="black" />
  <text x="112" y="229" font-family="sans-serif" font-size="2.5" text-anchor="middle" dominant-baseline="middle">2</text>
  <text x="112" y="222" font-family="sans-serif" font-size="3" text-anchor="middle" dominant-baseline="middle">C3</text>
  <rect x="12" y="87" width="20" height="10" fill="#b4c8f0" stroke="black" stroke-width="1" />
  <circle cx="32" cy="92" r="1.5" fill="black" />
  <text x="29" y="92" font-family="sans-serif" font-size="2.5" text-anchor="middle" dominant-baseline="middle">1</text>
  <circle cx="12" cy="92" r="1.5" fill="black" />
  <text x="15" y="92" font-family="sans-serif" font-size="2.5" text-anchor="middle" dominant-baseline="middle">2</text>
  <text x="22" y="92" font-family="sans-serif" font-size="3" text-anchor="middle" dominant-baseline="middle">CIN</text>
</svg>
