<svg xmlns="http://www.w3.org/2000/svg" width="164" height="198.286" viewBox="0 0 164 198.286">
  <line x1="137" y1="39.857" x2="92" y2="34.857" stroke="black" stroke-opacity="0.25" stroke-width="1" />
  <line x1="137" y1="59.857" x2="92" y2="64.857" stroke="black" stroke-opacity="0.25" stroke-width="1" />
  <line x1="137" y1="115.571" x2="92" y2="110.571" stroke="black" stroke-opacity="0.25" stroke-width="1" />
  <line x1="137" y1="135.571" x2="92" y2="140.571" stroke="black" stroke-opacity="0.25" stroke-width="1" />
  <line x1="132" y1="87.714" x2="92" y2="87.714" stroke="black" stroke-opacity="0.25" stroke-width="1" />
  <rect x="12" y="12" width="80" height="174.286" fill="#f5e6a8" stroke="black" stroke-width="1" />
  <circle cx="92" cy="34.857" r="1.5" fill="black" />
  <text x="89" y="34.857" font-family="sans-serif" font-size="2.5" text-anchor="middle" dominant-baseline="middle">1</text>
  <circle cx="92" cy="64.857" r="1.5" fill="black" />
  <text x="89" y="64.857" font-family="sans-serif" font-size="2.5" text-anchor="middle" dominant-baseline="middle">5</text>
  <circle cx="92" cy="87.714" r="1.5" fill="black" />
  <text x="89" y="87.714" font-family="sans-serif" font-size="2.5" text-anchor="middle" dominant-baseline="middle">2</text>
  <circle cx="92" cy="110.571" r="1.5" fill="black" />
  <text x="89" y="110.571" font-family="sans-serif" font-size="2.5" text-anchor="middle" dominant-baseline="middle">3</text>
  <circle cx="92" cy="140.571" r="1.5" fill="black" />
  <text x="89" y="140.571" font-family="sans-serif" font-size="2.5" text-anchor="middle" dominant-baseline="middle">6</text>
  <circle cx="92" cy="163.429" r="1.5" fill="black" />
  <text x="89" y="163.429" font-family="sans-serif" font-size="2.5" text-anchor="middle" dominant-baseline="middle">4</text>
  <text x="52" y="99.143" font-family="sans-serif" font-size="3" text-anchor="middle" dominant-baseline="middle">U1</text>
  <rect x="132" y="39.857" width="10" height="20" fill="#b4c8f0" stroke="black" stroke-width="1" />
  <circle cx="137" cy="39.857" r="1.5" fill="black" />
  <text x="137" y="42.857" font-family="sans-serif" font-size="2.5" text-anchor="middle" dominant-baseline="middle">1</text>
  <circle cx="137" cy="59.857" r="1.5" fill="black" />
  <text x="137" y="56.857" font-family="sans-serif" font-size="2.5" text-anchor="middle" dominant-baseline="middle">2</text>
  <text x="137" y="49.857" font-family="sans-serif" font-size="3" text-anchor="middle" dominant-baseline="middle">C1</text>
  <rect x="132" y="115.571" width="10" height="20" fill="#b4c8f0" stroke="black" stroke-width="1" />
  <circle cx="137" cy="115.571" r="1.5" fill="black" />
  <text x="137" y="118.571" font-family="sans-serif" font-size="2.5" text-anchor="middle" dominant-baseline="middle">1</text>
  <circle cx="137" cy="135.571" r="1.5" fill="black" />
  <text x="137" y="132.571" font-family="sans-serif" font-size="2.5" text-anchor="middle" dominant-baseline="middle">2</text>
  <text x="137" y="125.571" font-family="sans-serif" font-size="3" text-anchor="middle" dominant-baseline="middle">C2</text>
  <rect x="132" y="82.714" width="20" height="10" fill="#f0b4b4" stroke="black" stroke-width="1" />
  <circle cx="132" cy="87.714" r="1.5" fill="black" />
  <text x="135" y="87.714" font-family="sans-serif" font-size="2.5" text-anchor="middle" dominant-baseline="middle">1</text>
  <circle cx="152" cy="87.714" r="1.5" fill="black" />
  <text x="149" y="87.714" font-family="sans-serif" font-size="2.5" text-anchor="middle" dominant-baseline="middle">2</text>
  <text x="142" y="87.714" font-family="sans-serif" font-size="3" text-anchor="middle" dominant-baseline="middle">R1</text>
</svg>
